<svg width="500" height="240" fill="none" xmlns="http://www.w3.org/2000/svg"><g fill-rule="evenodd" clip-rule="evenodd" fill="#cda75f"><path d="M253.49 114.967c-.398.163-.511.311-1.085.324.141-.33.121-.216.598-.216l-.16-.094c-.016-.014-.047-.051-.061-.065l-.079-.165c.635-.322-.128.364.156-.195.199-.39-.112-.164.516-.563.081-.369.037-.448.617-.787.169-.1-.003-.008.247-.124-.015.46-.036 1.233-.123 1.652-.115.552-.256.769-.755.953-.413.151-2.361.329-2.644-.264 1.096.219 2.144.472 3.078-.239l-.095-.014c-.629-.134.191.234-.329-.102.159-.087.198.066.119-.1v-.001zm6.382 3.469l.057-.51c.018.003.02.006.001-.005l.052-.467c.05-.82.221-.35.375-.894.18-.642-.118.583.028-.183.172-.901.28-.505.875-.809.197-.101.391-.31.594-.529.426-.463.712-.596 1.166-1.197.265-.562.718-1.266.541-1.887a12.652 12.652 0 01-.269-1.157c.042-.04.037-.217-.102-.797-.054-.222.005-.119-.079-.38-.384-.783.107-1.359-.47-1.847-1.863-1.576-.495-2.696-1.398-3.577-.777-.759-.38-.475-.366-1.997.011-1.094-1.196-3.652-1.188-6.38.005-2.15-.301-.917-.45-2.21 1.314.016 5.556-.13 6.61-.434 1.033-.297 2.128-.851 2.608-.947 1.002-.203 1.91-.658 2.807-.927.111-.082.664-.604.925-.425.351.239.026-.072.024.1 0 .008-.037.05-.049.08.373-.145.249.162.399-.434-.403-.163-.345-.107-.699 0l.644-1.237c.307-.279.05.122.354-.277-.406.008-.274-.03-.609.226-.019.013-.04.033-.058.046l-.061.045c-.195.141-.331.257-.569.333.063-.358-.018-.116.195-.31.527-.484.473-.02.603-.664-.416.111-.158.076-.499.324v-.65c-.668-.144-.294-.05-.798.11l.438-.569c.01-.05.041-.054.061-.08-.284.032-.162.043-.499.107.293-.608.486-.017.299-.758.418.105.349.03.698-.216l-.133-.038-.064-.014-.53.146c-.064.04-.353.276-.36.28-.44.268-.157.239-.309-.05.35-.073.224-.13.472-.32.359-.274.386-.017.426-.653-.409.23.063.166-.598.216.204-.426.4-.276.698-.758-.005-.017.279-.108-.399-.108.047-.232.05-.225.062-.324.227-.72.621-.677.731-1.166-.413.338-.471.693-.918.856.156-.686.637-.683.873-1.27-.301.175-.195.371-.675.623.059-.581.251-1.02.412-1.532.105-.332.171-.444.274-.695.031-.077.088-.252.093-.304.047-.503.045-.113-.054-.27-.167.276-.586.876-.599 1.05l-.626 1.04c-1.268 1.981-.721 1.025-1.599 1.556l-.439.144c-.387.043-.094-.069-.43.184.093-.405.274-.444.533-.87.013-.02.028-.05.039-.071l.067-.126.058-.095.026-.044c.2-.465-.179-.183.224-.803l.179-.25c.013-.019.033-.043.046-.06.176-.232.076-.145.227-.277-.111-.081.061.008-.2-.142-.021-.014-.118-.01-.132-.055-.011-.03-.045-.013-.068-.019-.053.085-.12.319-.143.348-.525.638.516-.384-.179.087-.143.096-.369.473-.476.647l-.084-.385a.086.086 0 00-.016-.049.221.221 0 01-.056.02l-.642.088v-.325c.381-.196.049-.027.195-.005.186.027.236.064.457-.101l.246-.217c-.512-.23-.249.53-.4-.216.248-.157.246-.1.195-.57-.054-.504-.316-.113.097-.221l.161-.031c.407-.107.404-.181.533-.409.119-.207.013.087.112-.285-.11.078-.132.082-.294.158l-.932.34c-.352.163.214.274-.37.476.173-.95.169-.472.323-.974l.275-.432c0 .425.002.463.2.649.191-.18.152.031.18-.36.039-.525.055.023-.081-.191-.013-.02-.21-.345-.299-.422.249-.375.175-.145.22-.17l.288-.208-.308-.056c-.328.08-.394.188-.499.65l-.599-.541c.149.019 1.076.396.599-.109v-.323c-.791.335.167-.815-.699-.217.006-.036.049-.177.053-.2l.029-.321c.045-.218.108-.144.072-.347-.07-.408-.277-.29-.453-.322.005.035.028.195.024.217l-.122.215c-.034-.31-.042-.172-.102-.54.271-.058.301-.11.52-.567.011-.023.032-.043.039-.093.008-.053.03-.064.04-.098-.223-.092-.14-.095-.498-.108.066-.289.007-.17.157-.392.129-.193-.08-.198.164-.086.229-.513-.092-.488-.058-.488l.088-.548c-.018-.01-.051-.017-.06-.02-.426-.242.138-.113-.191-.524-.325-.204-.068.065-.237-.297l-.145-1.02c-.059-.783.015-.721-.233-1.373-.185-.494-.554-1.962-.766-2.239l.307 2.795c-1.059-.617-.678-1.088-.782-2.61-.061-.894-.255-1.932-.37-2.881-.124-1.03-.164-2.092-.27-3.122-.092-.889-.021-2.044-.067-2.401l-.146-.524c.105.726-.057.366-.167.475-.132 1.5-.051 3.758.021 5.308.038.846.224 1.525.272 2.37.046.806.074 1.916.036 2.716-.108 2.223-.366 1.93-.364 5.08.001 1.447.609 1.995.084 4.728-.76-.175-1.874-1.908-2.708-2.313.03-.416.098-.378.115-.532.018-.177-.086-.196.005-.482.008-.022.018-.053.027-.074.16-.366.109-.271.306-.311l.024-.397c-.383.09-.249.15-.48-.011.121-.161.135-.213.283-.344-.019-.025-.05-.056-.06-.073-.323-.556-.085.289-.089-.18 0-.002.581-.867 1.063-1.105l-.421-.206c.159-.264.049-.184.366-.35-.303-.267-.211-.086-.206-.552.005-.411-.036-.358-.037-.668.299-.25.064-.135.375-.212-.231-1.069-.421-.778-.069-1.403-.16.508-.152.174.156.289.203-.493-.124-1.095.53-1.642-.145-.368-.092-.297-.178-.721l-.144-.485c-.208-.644.105-.876.198-1.18l-.096-.005-.085.002c-.208.003.069.111-.104.003.472-.662.166-.225.176-.96.003-.222.141-.823.198-1.168.159-.99.068-1.682.203-2.629.221-1.557.446-3.35-.026-4.873h-.175c-.345.202-.268.886-.228 1.305.075.783-.03.877-.141 1.533l-.887 6.068c-.205 1.257-.404 1.717-.813 2.67-.169.436-.28.726-.488 1.08l-.032-.682-.065.058c-.011.008-.046.04-.055.047l.338-1.502c-.449.415-.09.503-.603.83l.072-.941c-.207.193.06.08-.054.029.084-.245.084-.508.184-.83l.317-.753-.066-.579c-.211.404-.141.605-.476.963.04-.499.211-.771.316-1.148.12-.432.094-.654.274-1.112.269-.679.59-1.375.701-2.046-.346.394-.192.241-.656.575l-3.662 2.525c-.497.344-.819.927-1.389 1.004.338-.67 3.725-3.204 4.446-3.863.34-.31.491-.568.793-.868 1.049-1.04 1.21-.665 1.4-1.92-.459.195-.523.462-.873.651l-1.045.343.214-.334c.398-.726.731-.463 1.011-.904.147-.23.21-.768.313-1.06.143-.407.247-.532.375-.926-.298.07-.644.248-.828.46-.151.24.228.193-.269.193-.323.019-2.577 1.374-3.687.54.197-.117 1.584-.352 1.922-.46.874-.278 1.295-.551 1.834-.663.22-.027.436-.282.63-.463l.169-.145c-.026-.01-.065-.016-.083-.02-.018-.002-.057-.013-.077-.018l-.339-.07c.106-.08.185-.128.284-.22.236-.216.071-.032.257-.297.122-.174.301-.444.323-.566a4.217 4.217 0 01.987-1.36c.149-.134.218-.12.314-.333-.16.133-1.082.77-1.281.836.187-.354.23-.285.492-.536-.87.392-.28.566-1.803 1.045a9.29 9.29 0 01-1.137.283c-.215.037-.466.02-.523.034-.169.041.016-.035-.161.078-.169.108.046.001-.147.135-.046-.088-.008-.022-.045-.128-.006-.019-.033-.076-.038-.096-.058-.243-.163.053.005-.189.118-.17.366-.176.56-.156l.021-.386c-1.263.688-.554.203-1.391.458.46-.54.894-.443 1.6-1.532l.188-.296c.065-.334.053-.21.315-.333-.131-.118.193-.234-.215-.092l-.466.368c-.474.3-.916.331-1.43.686l.055-.15a.593.593 0 01.037-.063c.131-.18.251-.17.426-.27.349-.205.295-.293.579-.49l-.399-.108c.125-.095.2-.138.337-.237.276-.197.218-.059.362-.412-.187-.086-.064-.094-.218-.017-.531.27.383-.274-.127.095-.018.014-.062.09-.076.066-.012-.025-.051.049-.078.071-.298-.28-.415-.14-.499-.216.212-.16.275-.253.599-.324a1.235 1.235 0 01-.11-.142c-.171-.299-.068-.284-.066-.29.204-.397.583-.571.974-.746.435-.694 1.602-.901 1.903-1.103.183-.123.109-.025.237-.207a.328.328 0 00-.083-.035l-.545-.057c-.2.016-.304.046-.522.06-.339.021-.925.118-1.21-.076.25-.183.026-.067.385-.165.106-.03.27-.053.415-.08l1.804-.216c.554-.121.176-.21.791-.234-.114-.022-.2-.001-.326-.066-.341-.177-.026.02-.121-.16-.041-.077-.413.05.005-.525-.549.24-1.049.2-1.773.188.129-.14.021-.056.206-.17.712-.437.495.185 2.371-1.127l.357-.295c0-.316.074-.406.085-.613l.164-.6c-.461.258-.484.927-1.262 1.338-.875.463-1.279.434-2.389.365.278-.237 1.727-.616 2.452-.842.875-.272.434-.803 1.349-1.999.349.129.072-.115.29.327.091-1.05.431-.568.705-1.177.185-.41-.044-.334.225-.742.108-.164.297-.251.457-.476.414-.575-.114-.637.564-1.338.597-.618 3.17-3.67 3.328-4.295.094-.365.024-.44.165-.783.151-.367.256-.472.552-.614.188-.173-.27-.099-.321-.26-.013-.04-.051-.034-.078-.048-.129.717.215-.072-.599.541.031-.49.316-.66.599-.865l-.292-.514-.073-.148c-.008-.02-.026-.049-.033-.067-.005-.017-.02-.047-.026-.063l-.023-.112a.35.35 0 01.008-.055c.002-.014.12-.2.141-.231-.268.057-.286.084-.598.108.195-.54.508-.603.8-1.19l.209-.546c-.171.1-.908.839-.96.91-.207-.126-.248.105-.167-.148-.023-.42.157-.154-.075-.32l-1.005 1.146-.123-.31-.436.412c.114-.098.464-.495.534-.652l.031-.082.083-.468c.016-.251.014.093-.005-.268l-.311-.153c-.17.061-.028.005-.167.135.174-.472.307-.319.413-.87-.382.219-.094.04-.331.346-.139.18-.076.13-.259.29.338-.803.69-.682.819-1.404-.451.199-.364.32-.692.52l.954-1.145c.013-.011.056-.014.066-.053.011-.04.045-.037.068-.053.048-.184-.075.014.124-.25.077-.1.111-.115.218-.208.161-.14.403-.214.211-.239l-.156.11c-.547.366-.76.612-1.239.703.075-.159.091-.164.215-.292l.053-.053.229-.196c-.146-.643-.35-.08 0-.649-.387-.082-.132-.091-.498 0-.232-1.264-.082-.245 0-1.514-.439.054.007.126-.499 0 .079-.35.1-.209.116-.37l-.031-.262c-.018-.175-.086-.385.114-.558-.146-.318-.127-.13-.234-.244l-.465-.622c.13-.153.178-.243.175-.502-.005-.386-.021-.292-.373-.364v-.757c-.251-.107-.221-.275-.343.057-.018.36.131 1.185.216 1.5.105.385.163.862.261 1.337.224 1.097.016 2.19.028 3.24a2.13 2.13 0 01-.18.946c-.224.49-.205.385-.781.385.008-.323-.008-.36.212-.454.592-.254-.317.354.169-.038.104-.084.095.011.072-.176-.053-.44.005-.08-.113-.108l-.147.006c-.01-.002-.037-.006-.047-.011-.013-.006-.3-.269-.346-.302.106.417.016.583-.299.866-.054-.423.154-.28-.2-.325.112-.2.227-.233.399-.325-.111-.002-.462.133-.598-.54.507-.603.219-1.009.1-1.731.382-.081.271-.1.299-.54l-.295-.002c-.168.113-.104.101-.2.325-.202.092-.078-.008-.179.268-.096.256-.006.46-.583.783l.404-.674c-.518.14-.165.188-.516.248-.008.002-.033 0-.04 0l-.211-.011c-.268-.068-.211-.22-.348-.642l-.189.167c-.068.048-.065.174-.385-.03l.372-.217-.175-.809c-.379.177-.262-.198-.301.538-.005-.054-.01-.103-.059-.148-.206-.193.111-.07-.105-.023-.067.014-.095.113-.127.116.064-.298.138-.453.196-.757-.021-.011-.054-.014-.067-.02l-.062-.016c-.19-.053-.101.195-.173-.051-.005-.022-.037-.011-.053-.022.06-.443.137-.4.045-.834l-.073-.174a5.015 5.015 0 00-.305 1.002c-.145.364-.008.172-.263.372-.319-.596.517-2.89-.099-4.106-.153.224-.239 2.922-.29 3.474-.258-.351-.22-1.07-.509-1.823-.156.393.223.035.068 1.419-.451-.063-.058.037-.562-.746-.126-.195-.147-.182-.273-.361-.783-1.107-.995-.99-1.431-1.8-.677-1.258-1.473-1.665-2.613-2.29.075.009.294.205.518.333.26.15.434.213.665.37.449.302.704.533.906 1.161-.123.211-.03.058-.167.224l-.1.108c-.129.138-.05.02-.141.135.287-.237.148-.25.636-.316l.401.506c.828 1.215 1.842 1.198 1.832 3.971l-.484-.258c.089.19.266.402.466.58.265.237.387.24.547.62-.749-.102-.453-.314-1.213-.198-.803.122-.294-.144-.851-.175-.571.003-.802.02-1.259.255.925.493 1.742-.067 2.698.102.547.098.537.097.592.504l-.245.092a.959.959 0 01-.091.011l-.996.023c-.719.019-1.61-.092-2.597-.012-.762.061-.194.337-1.028.344-.112-.77-.125-.66.169-1.281.175-.368.243-.793.462-1.104.875-.071 1.164.05 1.911.106-.248-.351-.698-.532-1.193-.68-.621-.187-.927.022-1.593-.023-.055-1.178.566-.565 2.054-.293.425.077.692.25 1.165.346 1.15.23.564.18 1.027.385-.283-.466-.591-.382-1.161-.498-.379-.078-.852-.235-1.384-.344-.312-.065-.435-.12-.694-.23-.424-.178-1.379-.905-1.521.232-.377.357-.156-.079-.483.527-.082-.312-.018-.125-.153-.382l-.178-.281c-.158.681.052.717.249 1.27-.268-.12-.069-.188-.483-.505-.023.025-.07.09-.085.108l-.22.197-.452.752c-.566-.921-.081-1.305.117-2.25-.41.163-.439.696-.73 1.409-.291-.648.487-1.965.622-2.462-.305.113-.806.782-.983 1.1-.12.214-.084.23-.252.426l.206-1.748-.269-.777c-.111.151-.046-.003-.158.297-.092.247-.023.066-.057.267-.196-.198-.075-.092-.283-.233l-.074-.232c-.028.011-.064.034-.081.043l-.184.095c-.181.083.032.103-.069.014-.058.328-.078.273-.1.634l-.075-.18-.038-.084c-.077-.17-.186-.337-.186-.602-.172.03-.189.064-.3.325-.005-.367-.032-.39-.099-.65-.21.056-.197.017-.366.108l-.034.296-.698.05c.085.338.129.223.599.169.258.15.187-.009.17.43-.689.068-.557-.021-1.168.252-.587.263-2.026 1.394-2.196 1.974-.135.357.042.073-.199.291-.001-.555.045-.202-.166-.324-.279.403.172-.03-.265.82-.168.33-.346.634-.371 1.018l.728.094c-.005.558-.2.979-.198 1.32.003.463.334.566.561.86.005.437-.139.905-.002 1.203.167.362.299-.014.332 1.179.021.75.944 2.159 1.399 4.31.218 1.031.528 1.225.957 1.855-.142.25-.453.596-.522.805-.232.708.149.92-.555 2.221l-.454.915c-.098.24-.36.587-.401.95-.076.682.192.643-.191 1.223-.385.581-.901.862-1.313 1.501-.493.767-2.603 11.043-3.232 13.577-1.316 4.77-1.175 4.795-1.163 10.183.005 1.866-.121 3.71-.166 5.63a557.52 557.52 0 00-.099 5.517c-.013.857-.117 1.678-.134 2.593-.059 2.936-1.098 3.29 1.187 3.745 3.454.688 4.855-.497 7.02 2.469.413.567.343 3.037.352 3.847.06 5.418.268 3.124-.818 7.661-.219.912.129 1.615-.005 2.72-.181 1.486-.736.973-.537 2.145.081.478.371.547.309.963-.021.144-.167.272-.344 1.225.511.264.47 1.002.552.713.003-.014.021.031.033.045l-.476.324-.333.377c-.47.119-.141-.002-.343.207-.195.204.039.023-.171.169-.167.116.005-.001-.274.113-.357.435-.066.728.05 1.15.28 1.02-1.338.47 1.012 1.918.626.386.437.355.904.826-.095.52-.344.282-.086.985.668 1.815-.471.725.502 3.127-.233.344-1.119.983-1.522 1.364-.832.787-.855.669-.834 2.205-.145.815-1.313 1.529-2.054 2.353-.126.14-.05.028-.16.193l-.099.16c.01.008.021.014.028.022-.152.354-.176.126-.508.359l-1.823 1.783c.386-.118.974-.13 1.351-.187.391-.059 1.27-.089 1.642.079-.904.065-1.425.338-2.287.234-.42-.05-.88-.04-1.09.128-.088.07-.672.647-.714.72.295.747-.109.045-.399.649.423-.082.525-.251.995-.192.323.041.617.121 1.099.056l1.8-.294c.043.006.062.009.102.017.04.008.064.017.1.025.036.008.069.022.098.03a.796.796 0 01.097.033c-1.134.244-1.716.433-2.994.433.153.223.867.104 1.199.104.598 0 .752.112 1.295.112-.029.028-.079.009-.099.064-.184.512-.015.005-.176.11-.225.146-.213.097-.323.367.406 0 1.014-.064 1.397.108.345-.011.889-.118 1.098-.324.272.195.075.005.2.324 1.071 0 2.724-.063 3.672.27.456.16 1.127-.053 1.815-.053l-2.693.324c.13-.32-.262.157.196-.186l.132-.091.07-.047a1.88 1.88 0 00-.698.108l-.099.433 1.598.075a.654.654 0 01.097.033c-.724.053-1.806.36-2.661.201-.719-.133.168-.141-1.124-.093-.309.011-1.193-.135-1.304.108.384.014.476.111.993.112.433.001.869-.003 1.302-.003l-1.995.217c-.098.252-.071.038 0 .432-.027-.014-.062-.074-.075-.048-.138.257-.137-.077-.151-.081-.021-.009-.051-.022-.073-.028-.02-.006-.049-.011-.071-.017l-.912.02c-.144.022-.071-.147-.215.153.721 0 .131-.148.698.107-.285.006-1.543.134-1.595.325a9.602 9.602 0 001.46-.193c.383-.096.601-.178 1.035-.138l.498.115c-.315.022-2.752.278-2.795.433 1.334 0 3.684-.445 4.242-.358.525.081 1.105.033 1.646.033-.032-.014-.082-.063-.1-.03l-.251-.086c-.285-.121-.078.15-.148-.101l1.796-.107c.144-.196.201-.096.499-.216-.272-.124-.579-.108-.89-.033l-1.74.222c-.732-.02.157-.06-.662-.189.038.377.661.229-.174.328-.225.025-.675-.006-.925-.006.286-.748-.1-.075-.199-.432.484-.011 1.338-.165 1.817-.211.604-.057 1.445-.005 2.074-.005-.36-.162-.641-.011-.698-.217.627 0 1.468-.205 2.095-.216l-.797-.216c.205-.266.9-.24 1.253-.292l1.44-.218a.528.528 0 00.101-.031c-1.135 0-1.994-.108-3.194-.108.046-.396-.035-.144.305-.274.028-.011.07-.019.094-.025.026-.008.069-.011.1-.025l-2.794.109c.222-.323-.367.13.15-.094l.25-.091c.026-.011.067-.017.099-.032-.595 0-3.099.262-3.293-.216.331 0 .483-.043.655-.071l.543-.115c.029-.008.068-.016.099-.03l-.105-.214c.49-.008.919-.159 1.37-.315.403-.139-.178-.12.432-.121.28.307.317-.281-.069.185-.002.006-.026.017-.031.031l.499.109c-.2.014-.858.072-.898.216.275 0 .529-.014.8.025l1.262.13c.023.002.052.003.076.006l.136.039c1.203.379 2.184-.193 3.113-.197.06 0 .37.008.403.003l.496-.223c-.281-.001-.541.096-.598-.109.6 0 .754.105 1.293.113.529.005 1.07-.006 1.601-.006-.341-.154-2.613-.357-2.878-.326-.582.07-.083.231-1.413.219-.499-.003-.999-.001-1.497-.001.116-.17.414-.088.698-.217-.407 0-.48-.07-.799-.108.137-.184.339-.16.599-.216l-.197-.062c-.155-.033-.131-.035-.303-.05-.132-.011-.355.003-.497.003.116-.17.414-.089.698-.216h-.898c.048-.338-.007-.19.519-.369l.18-.064c-.816-.175-.682 0-1.497 0 .185-.335-.024-.177.402-.226.293-.033.547-.055.727-.038.806.077.314.214 1.166-.06.171.003.193-.033.328.048.468.283.098-.145-.029.168h.699c.111.162.199.151.503.101.544-.091.17-.113.54-.194.267-.059 1.128-.016 1.451-.016l.001-.108c.758 0 1.693.145 2.095-.216-.016-.014-.046-.055-.054-.036l-1.678-.532c-.847-.195-1.613-.387-1.905-1.38.122-.266 1.265-1.546 1.488-1.705.204-.267.385-.553.632-.567.335-.138.087.099.391-.273.043-.051.22-.373.235-.41.145-.355.038-.592-.066-1.015-.081-.759.92-.889 1.311-1.485 1.496-2.279-.297-1.103.872-2.169l.071-.49-.025.021zm-.175-.129c-.094-.463.175-.41.241-.395l-.241.395zm.242-.4a2.601 2.601 0 01-.19-.106c-.25-.146-.777-.147-.849-.361.249.02.363.055.457.074l.444.111c.027.009.065.017.096.032.119-.215.018.358.094-.217l-.052.467zm3.178-7.148l.115.407c-.13.157.207.227-.191.105-.391-.331-.251-.254-.844-.304-.191-.016-.315-.022-.45-.063-.423-.13-.168.014-.279-.171-.135-.516.101-.006-.19-.188l-.34-.174c-.008-.029-.028-.037-.042-.055-.241.266-.076.153-.426.235l.379-.575a.423.423 0 00-.08-.04c-.018-.006-.055-.025-.075-.031-.769-.22.132.168-.27-.037.04-.415-.039-.22.272-.418.083-.244.54-.589.798-.735.656.095.773.37 1.099.72.574.614.221.51.524 1.324zm0 0c.044-.046.14.066.185.025l-.185-.025zm-17.453 16.116c.089.073-.042.022.186.068l-.186-.068zm9.738-12.819c.279.28-.065.831-.065.831-.008.025-.018.053-.021.077-.056.338.081.224-.084.854-1.128.54-.135-.181-.697 1.013-.17.362-.086.588-.509.952-.332.283-.373.114-.829.195-.117.019-.138.019-.24.055-.102.035-.352.205-.461.267-.495.277-.385.084-.502-.025.844-.307.567-.49 1.618-.541.372-.447.023-.227.637-.591-.136-.121.248-.218-.332-.134-.241-.615-.313-.407-.324-1.19l.327-.316c.103-.143.122-.219.199-.42.554-1.47-.385-1.779.889-2.755.629.683.498 1.157.395 1.729l-.001-.001zm-1.991-2.795l-.25-.362-.067-.017c-.013 0-.051-.011-.066-.011l-.27.031c.234-.728.495-.704.729-1.184.246-.503-.056-.424.331-.919.184-.234.093-.115.237-.228l.733-2.575c.105.77.195.912-.008 1.676-.562 2.11-.041 1.278-.08 2.263-.013.299-.1.621-.122.837-.081.788 1.197 1.351-.592 2.101-.338.142-.687.239-1.057.134-.245-.07-.094-.009-.241-.129.667-.244.471-.003.905-.532.227-.276.47-.388.618-.755a1.655 1.655 0 00-.799-.33h-.001zm.1-7.885c.529-.119.297-.144.5-.541 0 0 .407.055.288.466-.125.432.282.244-.389.292.222.882.021-.047-.1.648.34-.011.365-.084.698-.108.084.321.026.112.087.292l.088.231c.251.649.144.747-.167 1.197-.553.799.477-.375-.206.228.049-.498.225-.458-.299-.65.228.489.111.232-.325.536l-.118.088c-.213.141.128.019-.257.134l.066-.144c.663-1.269.261-.326.817-.957.147-.168.168-.341.215-.522-.294.144-.285.185-.698.216.066.172.154.165-.042.318-.093.072-.42.442-.205-.352.178-.66.047-.655.047-1.372zm6.577 5.466c-.503.539-.294-.183-1.542.868.133-.566-.026-.039-.005-.667.25-.14.291-.201.475-.331.203-.144.424-.189.681-.27.134-.337.212-.002.533-.373.186-.214.799-1.425.624-2.169-.498.178-.202.696-1.162.625.054-.36-.033-.103.205-.244-.029-.04-.319.255.1-.525-.169-.151-.125-.014-.2-.325-.35.246-.03.121-.498.217.14-.387-.125-.286-.146-.382-.008-.031-.043-.028-.054-.05l.195-.758.428-1.754c.008.028.018.182.024.217.062-1.095-.034-2.835.206-3.7.27.31.364.943.478 1.32.18.59.301.687.246 1.364-.068.83-.246 2.417-.119 3.171l.121-1.076.799.783c.052.63-.089 1.754.203 2.187.005.011.479.521.549.586.178.168.345.304.55.432l.101 1.231c-.452-.183-.694-.832-1.312-1.167-.649-.351-1.09.366-1.481.79h.001zm-6.477-6.656c-.124.261.105-.022-.3.324-.001-.649-.088-.232-.199-.865.371-.079.179-.12.399-.325-.473-.592-.272.129-.514-.263-.244-.396.074-.819.115-1.035.341.164.067-.203.298.28l.081.326.369 1.101c.23.629.374.501.05.89-.206-.587.049-.27-.299-.433zM248.2 87.431l.106.46.316-.42c.298.114.088.026.262.113l.336.105c-.14.384.028.56-.399.324-.024.376-.008.284-.1.541.198.137.191.263.496.318.221.04.156-.02.303-.102-.222.643-.018.999-.681 1.122l.198-.011c.093.24-.085.176.093.21.311.058-.077-.264.275-.025l-.184.775c-.309-.185-.351-.314-.638-.511-.238-.165-.442-.223-.66-.37l-.374-3.14c-.171-2.394-1.001-7.649-1.048-9.573.127.134.14.068.277.557.04.144.077.322.128.512.29 1.105.995 3.47.947 4.506-.064 1.35.29 1.062.256 2.484l.013 1.085c.011.005.034-.003.038-.003.31-.022.106-.085.242.003-.276.63-.018.461-.202 1.04zm.266-41.891c.28-.341.654-1.6 1.645-.494-.559.05-1.216-.171-1.028.59.205.836 1.604.671 2.574.872.725.15.693.053 1.203.043l.197.025c-.13.256.045.101-.513.253l-2.471 1.011c-.661.248-.68.308-.933.143.451-.388 1.112-.52 1.457-.758-.121-.89-.452-.415-1.295-.622-.724-.178-.763-.252-.991-.892l.155-.171zm4.683 1.406c.465-1.55.289-.278 1.191-1.2.647-.66.84-2.06.865-1.239.005.157-.026.163-.076.336-.084.288-.089.352-.158.708-.207 1.08-.396.699-.428.69-.007-.003-.045-.006-.051-.03-.005-.026-.032-.03-.053-.037-.169.64-.168.61-.631.503l.137.586-.486-.2c.269.384-.902.712-.893-.116l.583-.001zm7.447-1.236c-.112-.87-.07.198-.175-.538-.061-.426.307-.636.591-.817 1.027-.652.639-.32.937-.483.265-.144.19-.313.643-.325l-.06.08-.17.216c-.016.019-.037.039-.053.058l-.316.511c-.03-.016-.125-.079-.151-.092l-.348-.124c.176.353.03.258 0 .758.555-.066.063-.057.499-.108-.125.341-.021.07-.122.275-.176.36-.291.38-.662.713-.01.011-.049.066-.057.048-.008-.02-.038.03-.057.045.343.457.542.095.898.541-.543 0-.695-.109-1.297-.109-.376.788-.552.87-1.04 1.354l-.358.162c.09-.145.063-.098.175-.234l.153-.175c.176-.23.237-.329.271-.674-.352.076-.749.15-1.097.217.11-.29-.01-.07.072-.303l.426-.996.599.325c-.05-.271-.083-.252-.099-.54.494.037.375.123.798.215zm-10.262-2.899c.221.204.352.422.561.652.656.724 1.122.958 1.8 1.6-.406.27-1.38-.59-1.533-.704-.237-.172-.862-.34-.828-1.548zm13.377 1.74c.846-.226.984-.016 1.84-.518 1.178-.69.872-.974 1.551-1.08-.167.482-.247.372-.512.706-.332.418-.073.398-.268.895-.167.427-.342.303-.56.586-.218.283-.019-.035-.189.642l-.064.178c-.09.088-.851.41-1.216.32-.331-.082-.163-.005-.36-.206l1.827-1.3c-.374-.157-1.622.188-2.271-.144l.222-.079zm-6.266-8.793c-.01.264-.044.548-.096.8-.55 1.334-.307-.192-.244-.695.079-.621-.079-.823-.07-1.371.289.298.436.633.41 1.266zm-5.73 1.514c-.293-.7-1.274-1.968-1.335-2.168-.081-.264-.021-.365.065-.668l.071-.252c.158-.527.354-.941.4-1.672.361.184.122-.044.599.757.011-.023.013-.061.016-.075l.068-.31c.002-.022.005-.035.016-.048l.866 1.319c.091.148.46 1.068.332 1.386-.274-.458-.905-1.662-1.298-1.947l.798 1.297c-.212.625.046-.177-.2.218.242.7.837 1.35.999 1.73-.523-.039-.295-.07-.581-.584-.562-1.013-.518-.944-.861-1.255-.018-.017-.041-.034-.058-.05-.368-.366-.015-.25-.496-.6.065.246.118.293.244.656.16.458.173.36.355.643l-.404-.022c-.185.005.013.102-.395-.195.045.46.309.659.493.955l.289.461c.084.167.103.208.018.424h-.001zm1.026-5.323c.132.253.141.221.292.45-.581-.062-.646-.273-.725-.87.388.175.235.04.433.42zm2.758 3.268c-.069-.453.029-.982-.098-1.41-.444-1.503-1.051-2.033-.718-2.838.137-.333.124-.272.325-.402.291.443.01.173.008.863-.003.776.456 1.503.659 2.32.188.752.065.99.583 1.403.483.384.13.198.363.6.217.372.265-.126.222.793-.223-.148-.058.022-.255-.232l-.37-.574c-.353-.487-.209-.236-.718-.523h-.001zm-4.254-5.595l.071-.159c.141.245.292.543.491.755.418-.06.221-.008.361-.284l.373 1.427c-.498-.171-1.427-.52-1.395-1.18.001-.02.045-.346.052-.377.132-.63-.113.39.047-.182zm-1.659-2.609c.123-.353.628-.895.832-.99.149.294.078.963.368 1.945-.296.196-.136-.022-.434.174-.14-.39-.036-.232-.066-.424-.033-.215.021-.043-.043-.131l-.118-.052c-.003-.685.023-.364.185-.832-.403.29-.085.261-.724.31zm12.422-10.946c.349.232.092.067.3.423.364.62.854.577.897 1.544-.383-.171-.593-.262-.613-.536-.13.352.037.086-.2.3-.167-.166-.216-.163-.498-.217.101.251.234.087.497.444l-.339-.08c.326.02.625-.307 1.38.673.156.204.241.427.315.516l.395.338c1.454 1.702.969 1.756 1.764 3.839l.834 2.55c.122-.332.092-.165.343-.057v.757c.352.072.368-.022.373.364.003.259-.045.349-.175.502l.465.622c.107.113.088-.075.234.243-.2.174-.132.384-.114.559l.031.262c-.016.161-.037.02-.116.37.508.126.06.053.499 0-.082 1.269-.232.25 0 1.514.366-.091.111-.083.498 0-.35.568-.146.006 0 .649l-.23.196a.903.903 0 00-.052.053c-.124.128-.14.133-.215.292.479-.091.692-.337 1.239-.704l.156-.11c-.685.058-.196.067-.368-.159.013-.025.043-.091.048-.072.003.01.152-.074.073-.334-.129-.425-.281.297-.075-.432-.421-.014-.219.062-.479-.123-.381-.271-.213-1.017-.079-1.438-.166-.127-.229-.04-.572-.016l.114-.832c-.001 0-.201.124-.252-.261-.05-.396.151-.238-.276-.42.101-.43.102-.412.156-.913-.326.095-.518.186-.721-.112-.273-.402-.053-.543-.043-.998-.045-.036-.312-.19-.323-.198-.311-.263-.199-.29-.283-.495-.088-.215-.973-1.259-1.275-3.276 1.151.455 1.455 1.303 1.961 1.807-.406-.668-.81-1.14-1.418-1.593-.552-.411-.254-.442-.631-.949-.279-.375-.458-.33-.759-.803-.106-.167-.174-.324-.287-.437-.43-.436-.17.176-.564-.908-.338-.927-1.254-2.205-1.392-2.521.026.449.199.262-.223.176zm8.469 18.717c-.291.587-.604.65-.8 1.19.312-.025.33-.051.598-.108a4.132 4.132 0 00-.141.23.481.481 0 00-.007.055l.023.112c.005.017.021.047.026.064.008.02.023.048.033.067l.073.147.292.515c-.283.205-.568.374-.599.865.814-.613.469.175.599-.541.026.014.066.008.078.048.05.161.508.087.32.26.3-.534.396-.486 1.061-1.734 1.209-2.27 1.451-.843 1.498-4.417.018-1.412-.319-1.305-.774-2.154-.295-.55-1.373-.801-2.945-2.867-.525-.691-1.972-2.994-2.531-3.414.343.547.731.862 1.063 1.338.347.498.595.943.962 1.444 2.008 2.75 2.62 2.62 3.399 3.672.555.752.643.35.71 1.654.026.497.046 2.047-.051 2.469-.163.705-.469 1.12-1.104 1.216l.169-.345c-.023-.98.04-.63-.322-1.252-.041 1.627-.046.847-.546 1.904-.463.978-.346.974-1.035.722.079-.357.163-.616.192-.968a2.422 2.422 0 00-.242-.172h.001zm-23.851-12.768c.615-1.027.098-1.828 1.626-1.654.295.46.917 1.169.708 1.904-.333-.057-.354-.011-.504-.307-.083-.16-.102-.407-.097-.699-.198-.092-.235.507-.293-.375-.138 1.029-.137 1.026-.49 1.35.165.512.188.573.167 1.227l-.273-.84c-.294.12-.254.12-.644.102l-.2-.708zm12.315-4.218c-.026-.476.172-.344.65-.974-.13-.116.165-.05-.233-.143-.285-.068-.237.087-.434-.082-.008-.006-.027-.032-.034-.04l-.038-.042-.083-.085c-.434-.514-.041-.655.103-.906-.068-.008-.164.17-.409-.041.026-.022.101-.08.115-.087.179-.092.021-.025.159-.063l-.069-.134c.164-.257-.09-.089.236-.322.22-.159.213-.102.494-.129-.018.445-.066.8.031 1.219.424-.331.3-.462.416-.94l.068-.191c.086-.186-.129-.2.146-.131l.043.726c.305-.248.316-.574.494-.953.354.06.716.222.954.505-.133.107-.013.02-.069.324.161.145.412.407.527.758.422.086.248.273.223-.175-.544-.845-.271-1.112-.51-1.583.262-.122.129-.001.287-.053.295-.095.134-.043.209-.125.077-.083-.217-.242.427-.274-.423-.75-.856.115-1.279-.85l.77.216c-.246-.712-.377-.233-.615-.803.094.095.158.179.286.29.173.151.197.134.326.275.606-.005.074.02.303-.12l-.449-.354c-.193-2.08 1.378-2.427.718-3.942-.473-1.086-1.708-1.778-3.138-1.575l.153-.642c-.325.399-.537.484-.747.755l-.689.022c.047-.784.772-1.786-.082-2.492-.708.037-1.972 1.676-2.893 1.953-.919-.485-3.213-3.308-3.811-4.474-.286-.559-.479-.838-.783-1.312-.279-.437-.415-.942-1.128-.77-2.72.66-4.837 3.566-6.273 6.046-.748 1.293-1.525 3.26-1.473 4.91.023.767.414.926 1.069 1.049.139.163 1.221.612 1.581.817 1.17.356 1.565.618 2.46 1.228.37.253.707.47 1.118.737.489.317.744.617 1.102.863-.023.598-.274 1.749-.418 2.34-.14.58-.124.416-.609.67-.326.17-.548.293-.883.437.044 1.235 1.075.745 1.162.774.592.453.544.51.626 1.485-.308-.206-.228-.164-.439-.566-.155-.295-.251-.402-.411-.61-.42-.027-.779.029-1.019.24-.208.184-.123.168-.221.482-.168.543.027.159-.315.46-.249.221-1.277 2.45-1.161 2.949.088.377.421.51.632.83.401.613-.158 1.204.881 2.018-.229-.527-.609-.85-.483-1.607-.152 0-.086.03-.086-.216.501-.003-.016.073.168-.203h-.388c-.184-.305-1.089-1.04-.523-1.474.003-.002.036-.274.476.122.212.192.202.251.431.421l-.008.02c-.618-1.283-1.107-.269-.211-2.383.218-.515.018-.258.398-.425-.036.417.001.247-.143.568-.222.467.124 1.333.447 1.707l.034.025c-.282-.975-.027-.838.019-.908.04.002.581-.44.505 1.232.596-.7-.19-.131.292-.324-.034.521-.114.712-.464 1.02l-.482.392.551-.427c.132.465-.056-.177.098.217.187.477.085.397.164.813l.156-.611.234 1.139c-.536.297-1.26.933-1.321 1.784.212.122.165-.23.167.325.241-.218.064.065.199-.292-.002-.001-.399.066-.162-.606.052-.147.224-.354.313-.451.702-.76 1.963-1.636 3.042-1.6-.47.055-.514.17-.598-.168-.639.239-1.035.676-1.647.872-.199-.923-.315-2.483.369-3.254.172-.196.639-.492.721-.619.437-.672-.21-1.347-.13-2.189.031-.331.141-.75.254-1.025.151-.367.322-.59.768-.678-.139.477-.256.498-.396.922.143.318-.172-.082.246.224l.15.101c-.102 1.796.589 1.712.66 2.384.026.262-.149.934-.199 1.277-.071.488-.019 1.092-.065 1.64.17-.093.157-.054.366-.108.068.26.094.282.099.649.112-.26.129-.296.301-.325 0 .265.109.433.185.602l.039.083.075.181c.023-.361.043-.306.099-.634-.263-.117-.26.216-.197-.51.016-.185.1-.296.146-.42-.202.148.016-.02-.127.25l-.27.407c.018-.473.089-.798.19-1.184.031-.115.085-.372.126-.503.097-.315.054-.193.218-.445.512-.787.73-.616 1.811-.726.104.15.15.032.142.348.207-.295.471-.393.897-.252.036.011.135.056.168.072.226.12.072 0 .248.177-.197.085-.837.492-.931.688.393-.106.484-.284.822-.483a.8.8 0 01.188-.089c.11-.03.132-.006.154-.006l.57-.005.11-.037c-.79-.412-.495-.289-1.364-.409-.289-.04-.464-.154-.714-.167-.271-.013-.435.083-.821.084.23-.647.539-.428 1.384-1.21 2.052-1.703 1.943-.886 3.246-1.863.862-.647 2.804-.566 3.866-1.088-.094-.082-.132-.176-.362-.159l-.505.16c-.397.096-.725.205-1.102.306.356-.356 1.541-.878 2.445-.376l.338.08c-.262-.357-.395-.193-.497-.444.282.053.332.051.499.216.237-.215.07.053.2-.3-.961-.275-1.509-.697-2.522.028l-.567.255.01-.266c-.001-.009-.003-.044-.013-.063-.387.107-.3.122-.558.347l-.002-.002zm-.332-6.357c-.269-.154-.795-.632-.897-.886.341.024.75-.079.897.886zm1.352.475c-.461-1.58-.976-1.03-1.855-1.668.691-.04.994.073 1.527.273.129.469.01.418.344.678l-.016.717zm-.018-3.492l1.212.998c.044-.129.042 1.008-.172 1.502-.111.254.051.053-.187.274v-.973l-.497.216c-.013-.509-.013-.198-.07-.397-.115-.409-.026.173-.131-.457-.275-.172-.896-.837-1.391-.838-.602-.002.224-.016-.307.137l-1.875.229c.186-.461.195-.408.726-.788.165-.118.648-.518.701-.538.425-.16.634.138 1.108-.206.253-.183.281-.407.758-.503.601-.12 2.765.217 2.689 1.693l-.114.536c-.206-.115-.115.01-.29-.522-.088-.272-.123-.315-.215-.514-.489.641-.05.323-.455.345-.011 0-.039.006-.051.006l-.107.01c-.411-.019-1.032-.58-1.896-.546l.564.336zm-1.835-1.476l-.005-.027c.001-.003 0-.006-.001-.006-.869-.381-.429-.419-1.232.141a16.001 16.001 0 00-4.328 4.493c-.254.396-1.078 1.946-1.087 2.47l-.679 2.092c-.102.115-.062.065-.148.276-.175.436-.177.67-.148 1.086.187.138.496.27.684.368-.036.537-.12.605-.34.946l-.193-.656c-.722.014-.724.153-1.079.56-.494.567-.299.66-.493 1-.15.262.086.013-.176.21-.475-2.368 1.313-7.412 2.8-9.49 1.199-1.677 2.993-3.21 4.709-4.425 1.137-.805 1.217-1.282 1.935-1.196.2.509.2 1.7-.102 2.079l-.065.048-.052.031zm-3.997 7.464c.091.276.132.262.346.472.404.128.063.056.202-.115-.467-1.222-.126-.416-.33-1.373.68.084.836.624.896 1.48.232-.251.214-.648.368-.093.125.449-.02.66-.226.812.197.339-.07.076.302.197-.047-.17-.087-.16.066-.094.101-.34.514-1.017.588-.3.032.316-.196.291.062.575.183.202.265-.111.386-.199-.166.322-.109.158.002.433l.431-.42.224.197.355-.264c-.292.597-.799 1.232-1.217 1.923-.329.544-.927 1.51-1.177 2.102-.194.009-.016-.037-.24.069l-.041.18-.55.241c-.427-.726.029-.206-.484-.332-.041-1.436.094-.41-.163-.016-.018-.025-.284-.263-.29-.247-.038.099.628-.63.347-.917-.038.075-.623.649-.608.94-.359-.178-.126-.159-.447-.344-.397.24-.35.375-.831.455-.095-.208-.17-.468-.273-.69-.181-.395-.298-.375-.161-.785.243-.729.599-.377 1.227-1.824.201-.462.248-.344.419-.641l.423-1.146c.221-.328-.036-.202.393-.277h.001zm-.03 5.704c-.008.515.099.488.236.927l-1.713 1.208c-.653.179-.778.068-1.342.888-.271.394-.062.265-.472.446.085-2.81.446-.266-.336-3.03-.336-1.186-.058-.883.468-1.77.082-.14.063-.141.148-.266l.278-.305c.227.536.47 1.113.689 1.6.706.023.572-.56 1.78.13.047.028.108.098.264.172zm-5.573-6.537c.218-.897.814-2.44 1.223-3.12.258-.43.573-.854.877-1.224.066-.081.164-.202.241-.263l.655-.478c.331-.666 1.181-1.295 1.39-1.704-.498.173-.882.838-1.294 1.15.161-.53.822-1.06 1.265-1.376l.149-.025c.242-.4.766-.6 1.32-.704l.875.933-1.685 1.355c-.302.303-.562.276-.702-.103l-.008-.102c-.001-.02.005-.031.001-.045-.578.283.044-.243-.441.147-.073.059-.238.247-.278.39-.169.606.091.405-.059.947.202-.101.212-.127.4-.229-.103.308-.096.256-.257.467-1.035 1.696-.995 1.128-2.09 3.615-.169.385-.355 1.075-.587 1.361-.044-.33-.147-.682-.342-.92-.187-.228.155.004-.138-.12-.212.382-.132.518.155.844.276.313.389-.118.175 1.082-.484-.209-.231-.263-.945-.774-.048-.406-.104-.86.101-1.105h-.001zm4.199-7.442l.005-.09c.003-.002.003-.008.001-.01-.665.047-.305.337-.652.21-.276-.102.084-.233-.387-.287.264-.273.187-.047.176-.603l-.29-.065c.27-.26.184-.206.202-.747l-.78.348c-.061-.312.072.346-.011-.146l-.031-.118c-.002-.03-.013-.044-.024-.064-.446-.08.046-.08-.406-.074l.026-.433c-.092-.438.122-.162-.167-.379-.483.832-.48.16-.885.653-.18-.568.065-.17-.423-.382.082-.454.237-.375.341-.919l-.466.477c.101-.354.069-.337.027-.698l-1.397.137.304-.349c-.146-.248.203-.254-.208-.189l-.338.366-.431.022c-.045-.395.085-.181-.289.036-.145.084-.139.067-.25.108-.555.203-.385.527-.933.864-.151.093-.093-.048-.338.294-2.429 3.393-2.416 4.866-2.823 5.625-.117.218-.026.079-.172.24.169-2.044 1.202-3.734 2.023-5.053.577-.927 2.327-3.08 3.137-3.645.585-.405 1.484-.962 2.305-1.105.643-.113.805.164 1.062.552.227.342.44.686.63 1.053 1.08 2.086 1.996 2.635 2.884 3.915l-.74.428c-.343.174.065.187-.43.087a3.151 3.151 0 01-.253-.06h.001zm-4.184 12.491c.165.322.088.24.123.901l-.727.236c-.438-.002-.486-.194-.499-.577.375-.17.55-.079.934.053.05-.523-.305-.53.169-.613zm15.852 29.896c-.01.206-.085.296-.085.613l.048-.337c.15.069.378.14.437.505.039.252-.054.405-.109.699-.113.611.144.627.006 1.504-.181 1.144.445 1.793.146 2.873l-.452 2.117c-.183.39-.06.069-.345.399-.394.457.118.45-.175 1.094-.146.32-.638.605-.952.65l-.082-.279c-.038-.145-.005-.116-.052-.21-.021.122-.201.392-.323.566-.186.265-.021.081-.257.297-.099.091-.178.139-.285.22l.34.07c.021.005.061.013.077.019.019.002.057.008.083.019l-.169.145c-.194.18-.41.436-.63.463.003.036-.002.198-.005.228l-.063.354c.497 0 .119.047.269-.192-.211-.154-.502.069.721-1.08.376-.353.729-.736 1.223-.912-.057.613-.219.74-.337 1.319h.175c-.04-.483.04-.846.314-1.245l.254.334c.382.74.09 2.515.064 3.291.11-.11.272.25.167-.476l.055-.891c.608.344.906 1.132 1.095 1.783.357 1.225 3.254 7.47 4.094 9.182.587 1.197 1.195 2.259 1.794 3.458 1.168 2.338 2.212 4.845 3.436 7.2 1.334 2.566 2.905 3.973 2.176 5.341-.241.454-.878 1.127-1.403 1.291.117-.348.163-.435.455-.565l-.611.45-.1-.318c-.484.18-.44.422-1.146.537l.286-.358c.761-.719-.194-.033.42-.51-.601.345-.386-.03-.413-.05.18-.301.061-.22.402-.39-.494.043-.14.255-.732.368-.782.15-.141.001-.195.222l-.01.054c-.093.219-.204.21-.407.317l-.058-.22c-.038-.17-.021-.085-.045-.2-.002-.02-.015-.079-.018-.099-.071-.59.107.033.023-.246-.36.092-.263.268-.558.032.206-.122.097-.086.313-.223.64-.406-.077.24.708-.48-.008-.006-.027-.006-.031-.009l-.262-.135.677-.992c-.177.427-.968 1.257-1.604 1.405.246-.707 1.403-1.74 1.257-2.148-.293.601-.717 1.266-1.349 1.307l.51-.728c-.08-.052-.256.08-.502-.158.464-.287.355-.144.704-.59l-.761.551c-.007-.016-.007-.048-.01-.055l-.034-.245c0-.02-.007-.079-.005-.1.067-.465.448-.21.348-.756-.246.254-.358.424-.731.525.162-.396.138-.261.396-.548-.369.203-.597.668-1.062.82l-.138.016c-.013.1-.016.094-.062.325.679 0 .394.091.399.108-.298.482-.493.333-.698.757.661-.05.189.014.598-.215-.041.635-.067.379-.425.652-.248.19-.122.246-.473.32.153.29-.131.318.309.052.008-.003.297-.242.36-.281l.53-.147c.015.002.049.012.064.014l.134.039c-.349.245-.281.32-.699.216.187.743-.005.15-.299.758.337-.065.216-.075.499-.108-.021.028-.05.031-.061.08l-.438.569c.504-.16.13-.253.799-.109v.65c.341-.248.082-.213.499-.325-.131.645-.076.18-.603.664-.213.195-.132-.047-.196.31.239-.075.374-.19.57-.333.018-.013.042-.03.06-.045l.058-.046c.336-.255.204-.218.609-.226-.304.4-.047-.001-.353.277l-.644 1.239c.353-.108.296-.165.698 0-.15.595-.026.288-.399.432.013-.03.049-.071.049-.08.003-.171.329.14-.023-.1-.262-.178-.814.343-.925.425.622-.202.803-.194 1.381-.488 1.41-.719 5.841-2.477 4.443-4.99-.509-.916-1.069-1.559-1.61-2.587-1.465-2.776-2.604-5.552-4.036-8.283-1.237-2.359-1.616-2.962-2.769-5.549l-3.117-7.224c-.057-.184-.577-1.285-.677-1.422-.638-.868-.247-.447-.472-1.584-.196-.994-.721-1.018-.01-2.387l.575-2.617c.142-.569-.066-1.107-.156-1.68-.144-.923.127-1.197.002-1.958-.172-1.035.296-.623-.065-1.655-.331-.947.676-.635.134-1.39.007.508-.133 1.03-.523 1.05l-.004-.001z"/><path d="M47.285 87.006v-1.648c6.901-1.127 12.113-2.115 15.647-2.966a389.701 389.701 0 005.427 17.199c2.743 8.014 4.871 13.766 6.384 17.231 1.62-3.328 3.806-8.493 6.57-15.52 2.713-6.93 4.743-12.532 6.09-16.795l10.151-2.115-.028 2.435v2.518c.01 1.107.01 1.648.01 1.648 0 12.596.595 24.597 1.795 36.024l-9.292 2.211c.04-1.978.06-3.678.06-5.113 0-5.58-.167-12.139-.49-19.654-.224-5.261-.536-9.63-.917-13.117-2.323 5.315-4.763 11.278-7.32 17.878-2.626 6.815-4.774 12.938-6.433 18.358l-6.091 1.403c-3.377-11.639-7.75-24.246-13.129-37.83-.215 2.89-.4 6.197-.556 9.938-.37 8.578-.556 14.648-.556 18.199 0 2.476.078 5.388.224 8.758l-4.46 1.211c.712-4.634 1.395-11.426 2.049-20.376.274-3.689.508-8.047.693-13.053.098-2.678.147-4.199.147-4.571 0-.914-.107-1.52-.313-1.807-.332-.393-1.2-.595-2.616-.595-.878 0-1.893.052-3.045.149zm-12.28 39.545c.51 1.832 2.087 3.284 3.918 3.518.911.14 1.847-.051 2.707-.448a6.414 6.414 0 002.229-1.839c1.24-1.552 1.78-3.801 1.356-5.898-.407-2.049-1.558-3.936-3.182-5.193-1.604-1.244-3.67-1.85-5.706-1.598-1.014.107-1.99.433-2.9.899a10.465 10.465 0 00-2.532 1.808c-1.51 1.48-2.64 3.446-3.166 5.636a12.423 12.423 0 00-.372 3.181l-.096-.282c-2.34.67-4.803.872-7.229.601a18.87 18.87 0 01-6.971-2.251 20.689 20.689 0 01-5.834-4.792c-1.66-1.957-2.985-4.257-3.918-6.75-.915-2.51-1.413-5.141-1.304-7.805.106-2.665.773-5.316 1.949-7.668 1.159-2.357 2.828-4.424 4.82-5.981 1.977-1.574 4.36-2.687 6.77-3.092a12.063 12.063 0 017.217 1.028c2.255 1.09 4.243 2.884 5.603 5.13a14.697 14.697 0 011.63 3.66 12.61 12.61 0 01.522 3.978c-.08 2.688-1.065 5.361-2.767 7.351-1.668 2.025-4.038 3.399-6.51 3.661-2.498.269-5.073-.765-6.835-2.731-.886-.977-1.561-2.18-1.99-3.479a8.194 8.194 0 01-.282-4.056c.244-1.352.843-2.633 1.71-3.634a6.78 6.78 0 013.235-2.147c-1.253.34-2.403 1.071-3.307 2.077-.902.997-1.548 2.302-1.812 3.68a8.372 8.372 0 00.21 4.205 9.964 9.964 0 002.01 3.667c1.804 2.077 4.516 3.232 7.155 2.994 2.67-.228 5.188-1.639 7.023-3.749 1.822-2.114 2.947-4.97 3.067-7.913.073-1.454-.12-2.93-.505-4.332a16.566 16.566 0 00-1.694-3.992c-1.479-2.459-3.61-4.45-6.073-5.67-2.463-1.22-5.274-1.704-7.969-1.265-2.716.437-5.273 1.588-7.502 3.278-2.228 1.705-4.093 3.982-5.415 6.582a20.894 20.894 0 00-2.237 8.537c-.078 1.51.008 3.01.24 4.482a26.203 26.203 0 001.129 4.304c1.929 5.585 5.847 10.298 10.77 13.046 4.444 2.532 9.712 3.373 14.685 2.36l-.04.037a6.567 6.567 0 00-1.742 2.869 6.37 6.37 0 00-.265 1.719c-.031.586 0 1.155.086 1.723a8.036 8.036 0 001.223 3.201c.594.954 1.42 1.755 2.352 2.36a7.28 7.28 0 003.03 1.02v.005h436.96v-.102a6.94 6.94 0 003.07-1.018 7.77 7.77 0 002.357-2.357c.616-.945 1.031-2.064 1.22-3.204.09-.555.119-1.137.09-1.711a6.188 6.188 0 00-.279-1.722 6.383 6.383 0 00-1.74-2.893l-.02-.019a21.311 21.311 0 0014.679-2.361c4.906-2.743 8.816-7.476 10.774-13.045a25.455 25.455 0 001.116-4.305c.241-1.472.317-2.981.258-4.467a20.99 20.99 0 00-2.251-8.552c-1.317-2.603-3.181-4.881-5.415-6.576-2.232-1.71-4.794-2.857-7.506-3.284-2.699-.439-5.5.033-7.96 1.253-2.468 1.229-4.602 3.223-6.069 5.696-.744 1.23-1.301 2.567-1.707 3.97a14.252 14.252 0 00-.504 4.353c.123 2.93 1.248 5.777 3.074 7.901 1.831 2.12 4.368 3.498 7.011 3.754 2.669.238 5.36-.927 7.173-3a10.19 10.19 0 001.998-3.656 8.704 8.704 0 00.221-4.22 7.893 7.893 0 00-1.821-3.689 6.97 6.97 0 00-3.302-2.069 6.865 6.865 0 013.216 2.143 7.613 7.613 0 011.724 3.638 8.279 8.279 0 01-.282 4.048 9.254 9.254 0 01-2.002 3.484c-1.745 1.965-4.328 2.999-6.818 2.739-2.481-.28-4.854-1.653-6.527-3.647-1.681-1.994-2.686-4.673-2.755-7.368a12.081 12.081 0 01.523-3.97c.38-1.3.907-2.53 1.604-3.655 1.381-2.246 3.366-4.04 5.628-5.11a11.878 11.878 0 017.22-1.068c2.412.428 4.778 1.524 6.771 3.093 1.997 1.566 3.657 3.648 4.833 5.99a19.242 19.242 0 011.924 7.662c.112 2.67-.376 5.314-1.296 7.808-.927 2.478-2.257 4.787-3.912 6.753a20.667 20.667 0 01-5.843 4.792 18.874 18.874 0 01-6.981 2.251c-2.408.284-4.872.069-7.224-.592l-.088.264a12.464 12.464 0 00-.367-3.164 11.822 11.822 0 00-3.179-5.649 11.154 11.154 0 00-2.518-1.811c-.895-.458-1.887-.788-2.909-.904-2.037-.246-4.093.364-5.706 1.63-1.617 1.231-2.768 3.121-3.183 5.194-.414 2.092.121 4.332 1.352 5.896a6.41 6.41 0 002.232 1.817 4.963 4.963 0 002.716.465c1.827-.246 3.41-1.704 3.922-3.53-.653 1.775-2.27 2.995-3.955 3.065-1.673.107-3.272-.945-4.235-2.375-.958-1.42-1.261-3.331-.812-4.975.453-1.653 1.496-3.14 2.856-4.001 1.34-.899 2.957-1.212 4.449-.914 1.463.275 2.921 1.198 3.99 2.382a9.105 9.105 0 012.097 4.34 9.297 9.297 0 01-.207 4.073 5.39 5.39 0 00-.418.034 3.98 3.98 0 00-1.527.49c-.958.507-1.733 1.393-2.173 2.426-.231.512-.347 1.086-.398 1.641-.038.552-.013 1.135.149 1.699.3 1.094 1.074 2.031 2.032 2.487.48.238.992.359 1.51.326.509 0 1.044-.134 1.475-.429.921-.558 1.484-1.68 1.45-2.789-.015-.568-.204-1.127-.517-1.538-.334-.442-.774-.759-1.27-.86-.492-.112-1.027-.076-1.45.217a1.98 1.98 0 00-.847 1.292c-.107.525.03 1.112.38 1.485.348.378.865.531 1.335.387.458-.14.779-.661.749-1.151 0-.508-.437-.941-.898-.885.461-.043.859.405.851.885 0 .475-.317.913-.749 1.029-.398.113-.881-.051-1.159-.39-.303-.35-.381-.835-.283-1.292.082-.455.364-.866.741-1.074.351-.243.799-.267 1.223-.154.415.12.788.381 1.035.755.265.357.389.808.389 1.256.018.937-.487 1.836-1.223 2.269-.731.442-1.664.39-2.412 0-.778-.397-1.352-1.155-1.579-2.008-.111-.433-.119-.899-.081-1.35.048-.457.171-.923.36-1.332.358-.802.996-1.491 1.749-1.85.367-.204.765-.298 1.193-.348.406-.039.834-.02 1.253.058a4.627 4.627 0 012.199 1.213 5.194 5.194 0 011.318 2.272c.106.438.162.866.174 1.324.006.456-.037.917-.115 1.36a6.686 6.686 0 01-1.005 2.487c-.98 1.463-2.567 2.39-4.2 2.5v.065H31.497v.014c-1.617-.103-3.154-1.043-4.142-2.489a6.406 6.406 0 01-1.01-2.479 7.34 7.34 0 01-.112-1.363c0-.461.078-.899.176-1.337a5.284 5.284 0 011.308-2.264 4.48 4.48 0 012.217-1.202c.41-.097.837-.107 1.244-.069.419.036.822.153 1.21.335a3.977 3.977 0 011.737 1.873c.18.414.313.856.355 1.304.043.474.034.927-.098 1.364-.206.866-.795 1.625-1.556 2.008-.746.405-1.695.455-2.422 0-.727-.439-1.219-1.338-1.219-2.255 0-.465.119-.922.38-1.271a1.97 1.97 0 011.044-.751c.403-.107.856-.088 1.232.14.372.233.633.629.731 1.082.102.461 0 .963-.282 1.29-.29.344-.761.511-1.175.4-.411-.107-.736-.555-.728-1.044-.016-.474.384-.914.834-.874-.45-.048-.877.372-.877.874-.038.522.282 1.01.752 1.16.45.159.985-.006 1.327-.4.35-.359.47-.945.376-1.467-.094-.521-.398-1.012-.834-1.276-.436-.303-.97-.345-1.45-.233a2.165 2.165 0 00-1.275.848 2.67 2.67 0 00-.521 1.546c-.04 1.103.52 2.231 1.44 2.804.43.293.973.437 1.485.437.513 0 1.03-.116 1.515-.339.949-.461 1.714-1.379 2.014-2.484.175-.543.205-1.135.167-1.705a5.822 5.822 0 00-.411-1.649 4.958 4.958 0 00-2.156-2.431 4.556 4.556 0 00-1.96-.518c-.375-1.3-.45-2.7-.184-4.065a8.585 8.585 0 012.078-4.341c1.07-1.183 2.512-2.1 3.984-2.393 1.5-.299 3.117.042 4.456.917 1.35.866 2.404 2.357 2.854 4.006.453 1.659.136 3.545-.826 4.979-.954 1.425-2.55 2.464-4.235 2.375-1.681-.073-3.285-1.281-3.935-3.069v.002zm282.337 75.422c1.847-.188 3.69-.361 5.525-.515 1.89-3.639 3.691-7.66 5.384-12.15a111.817 111.817 0 01-4.7 12.094c18.213-1.476 35.735-.918 50.218 6.911 5.115 2.744 9.584 8.603 13.28 10.219v2.394h-.21a7.57 7.57 0 00-.081-1.211c-21.442-17.147-44.403-16.243-67.81-9.458-10.806 18.4-25.991 29.691-41.479 29.743-9.015.027-18.195-1.679-27.47-4.336-9.275 2.657-18.455 4.363-27.471 4.336-15.49-.052-30.679-11.345-41.485-29.747-23.404-6.781-46.361-7.683-67.8 9.462-.056.425-.085.83-.085 1.211h-.215v-2.394c3.704-1.616 8.182-7.475 13.281-10.219 14.491-7.828 31.999-8.387 50.216-6.912a111.8 111.8 0 01-4.7-12.093c1.694 4.489 3.495 8.511 5.385 12.149 1.84.154 3.687.328 5.538.516 21.452 2.193 44.977 14.391 67.335 22.048 22.36-7.656 45.887-19.855 67.344-22.048zm-.097 8.79c-15.992 4.821-32.181 12.245-48.224 18.405 18.278 3.254 35.025.14 48.224-18.405zm-134.498-.002c13.202 18.548 29.951 21.662 48.231 18.407-16.045-6.16-32.236-13.586-48.231-18.407zm-70.596-154.48l-2.051 2.257c-.305-.542-.582-.933-.839-1.173-.235-.24-.508-.36-.809-.36-.406 0-.765.216-1.074.644-.298.395-.486.926-.562 1.588-.057.491-.086 1.185-.086 2.087 0 .859.041 2.155.127 3.89l-3.591.7c.159-2.128.24-4.29.24-6.49 0-1.476-.073-2.386-.224-2.737-.065-.172-.252-.283-.561-.328a5.481 5.481 0 00-.985-.071l-.546.017h-.297v-.572l6.093-1.216c-.085 1.105-.129 1.95-.129 2.538a8.465 8.465 0 011.383-1.44c.753-.62 1.393-.93 1.918-.93.63 0 1.294.53 1.993 1.596zm10.939 7.07l-.094.739c-1.84 1.201-3.667 1.8-5.487 1.8-1.079 0-2.031-.252-2.85-.758-1.327-.827-1.989-2.252-1.989-4.27 0-2 .626-3.58 1.884-4.734 1.18-1.073 2.796-1.612 4.847-1.612 1.091 0 1.914.167 2.472.503.59.359.883.962.883 1.812 0 1.704-.998 2.889-2.988 3.552-.94.31-2.133.514-3.582.618.016.778.187 1.457.513 2.027.57 1.014 1.424 1.52 2.564 1.52.993 0 2.267-.398 3.827-1.197zm-6.952-3.172a.807.807 0 00.141.01c.131.017.269.026.42.026.769 0 1.458-.248 2.072-.74.737-.598 1.103-1.384 1.103-2.358 0-.45-.09-.841-.264-1.169-.241-.427-.591-.643-1.055-.643-.606 0-1.128.324-1.567.97-.566.834-.85 2.135-.85 3.903zm16.957-5.148l-.643 2.91h-.513c0-.312-.013-.72-.036-1.223-.176-.382-.384-.677-.62-.877-.415-.356-.863-.535-1.351-.535-.452 0-.827.14-1.119.419a1.31 1.31 0 00-.432 1.006c0 .49.237.938.704 1.345.302.247.965.662 1.991 1.237.945.53 1.579.945 1.904 1.248.518.484.774 1.098.774 1.849 0 .83-.309 1.564-.928 2.195-.851.858-2.219 1.285-4.099 1.285-1.644 0-3.036-.376-4.181-1.121l1.503-2.012h.117c.119.507.29.926.51 1.253.484.727 1.107 1.09 1.864 1.09.484 0 .891-.168 1.225-.503.33-.327.496-.714.496-1.17 0-.55-.288-1.046-.866-1.48-.167-.12-.717-.448-1.649-.982-1.054-.614-1.75-1.189-2.088-1.72a2.848 2.848 0 01-.476-1.588c0-1.142.517-1.98 1.551-2.511.818-.418 1.831-.63 3.036-.63 1.115 0 2.223.172 3.326.515zm7.579.486l2.841.224v.595h-2.877a63.707 63.707 0 00-.078 3.001c0 2.302.074 3.687.216 4.154.077.255.179.435.296.535.168.155.428.236.778.236.582 0 1.225-.144 1.933-.428v.703c-2.055.902-3.712 1.353-4.973 1.353-1.112 0-1.669-.619-1.669-1.856 0-.392.02-.902.057-1.533.072-1.468.118-3.527.134-6.165h-2.341v-.607l2.353-.144c0-.845-.013-1.808-.036-2.873l-.013-.623a99.75 99.75 0 003.786-1.8 79.75 79.75 0 00-.408 5.228h.001zm7.583 2.287l-2.182-.34c.322-.976.851-1.671 1.6-2.074 1.067-.583 2.503-.874 4.307-.874 1.974 0 3.236.331 3.794.994.248.295.37.814.37 1.557 0 .146-.003.482-.013 1.005-.023.99-.037 1.924-.037 2.793 0 1.373.086 2.28.253 2.714.069.188.154.316.247.387.135.116.351.176.644.176.509 0 1.103-.112 1.787-.331v.678c-2.629.934-4.364 1.401-5.206 1.401-.778 0-1.168-.479-1.168-1.437 0-.025.005-.076.008-.152-.672.42-1.246.73-1.735.935a8.166 8.166 0 01-3.219.654c-.932 0-1.604-.172-2.019-.515-.435-.351-.656-.942-.656-1.768 0-1.404.477-2.478 1.433-3.229 1.026-.794 3.134-1.34 6.326-1.636-.008-.858-.086-1.5-.228-1.927a1.908 1.908 0 00-.773-1.002 2.303 2.303 0 00-1.328-.388c-.826 0-1.416.317-1.774.947-.176.311-.318.786-.432 1.432h.001zm4.543 1.812a5.18 5.18 0 00-.692-.047c-.969 0-1.799.23-2.491.69-.728.487-1.09 1.245-1.09 2.287 0 .563.117 1.01.358 1.345.304.423.724.634 1.257.634.582 0 1.148-.195 1.69-.586.549-.392.87-.846.956-1.369.057-.323.086-.77.086-1.35 0-.31-.008-.621-.026-.925-.023-.455-.04-.678-.049-.678h.001zm21.916 4.218v.679c-2.63.918-4.315 1.377-5.052 1.377-.818 0-1.225-.483-1.225-1.45 0-.23.005-.506.013-.817-.734.615-1.32 1.057-1.767 1.321a6.395 6.395 0 01-3.375.946c-1.026 0-1.726-.252-2.108-.758-.257-.336-.383-.879-.383-1.624 0-.093.003-.26.016-.504.052-1.9.081-3.085.081-3.552 0-1.751-.114-2.726-.345-2.917-.172-.147-.697-.223-1.584-.223-.114 0-.35 0-.709.005v-.571l6.098-1.218a77.05 77.05 0 00-.285 6.634c0 .958.073 1.628.224 2.011.26.63.708.946 1.343.946.64 0 1.258-.243 1.861-.734.569-.475.899-1.042.997-1.696.061-.491.093-1.302.093-2.426 0-.671-.044-1.989-.134-3.952l3.644-.783a106.7 106.7 0 00-.213 6.857c0 1.237.106 2.031.322 2.384.135.218.395.326.785.326.444 0 1.01-.088 1.702-.26h.001zm10.505-7.554l-2.051 2.258c-.305-.542-.582-.933-.839-1.173-.235-.24-.508-.36-.809-.36-.407 0-.766.216-1.074.644-.298.395-.486.926-.563 1.588-.057.491-.085 1.185-.085 2.087 0 .859.041 2.155.126 3.89l-3.59.7c.159-2.128.24-4.29.24-6.49 0-1.476-.073-2.386-.224-2.737-.065-.172-.252-.283-.561-.328a5.494 5.494 0 00-.986-.071l-.545.017h-.297v-.572l6.093-1.216c-.086 1.105-.13 1.95-.13 2.538a8.506 8.506 0 011.384-1.44c.753-.62 1.393-.93 1.918-.93.63 0 1.294.53 1.993 1.596zm3.693 1.524l-2.182-.34c.322-.976.851-1.671 1.6-2.074 1.066-.583 2.503-.874 4.306-.874 1.975 0 3.237.331 3.794.994.249.295.371.814.371 1.557 0 .146-.006.482-.013 1.005-.024.99-.037 1.924-.037 2.793 0 1.373.085 2.28.252 2.714.07.188.155.316.249.387.134.116.35.176.643.176.509 0 1.103-.112 1.787-.331v.678c-2.63.934-4.364 1.401-5.207 1.401-.777 0-1.168-.479-1.168-1.437 0-.025.006-.076.008-.152-.672.42-1.246.73-1.734.935a8.17 8.17 0 01-3.22.654c-.932 0-1.604-.172-2.02-.515-.434-.351-.654-.942-.654-1.768 0-1.404.476-2.478 1.433-3.229 1.026-.794 3.135-1.34 6.325-1.636-.008-.858-.085-1.5-.227-1.927a1.915 1.915 0 00-.774-1.002 2.302 2.302 0 00-1.327-.388c-.827 0-1.417.317-1.775.947-.174.311-.317.786-.431 1.432h.001zm4.543 1.812a5.201 5.201 0 00-.693-.047c-.968 0-1.798.23-2.491.69-.728.487-1.09 1.245-1.09 2.287 0 .563.118 1.01.358 1.345.305.423.725.634 1.258.634.582 0 1.148-.195 1.689-.586.549-.392.872-.846.956-1.369.058-.323.086-.77.086-1.35 0-.31-.008-.621-.023-.925-.024-.455-.041-.678-.049-.678h-.001zm11.369 5.611l-3.53.699c.184-2.607.277-4.897.277-6.873 0-1.484-.109-2.327-.334-2.53-.175-.155-.712-.235-1.611-.235-.11 0-.343.008-.692.02v-.575l6.02-1.217-.026.443-.061.986-.056.993-.013.423c1.754-1.895 3.565-2.845 5.438-2.845 1.535 0 2.3.819 2.3 2.455 0 .334-.008.85-.029 1.552-.013.498-.02 1.157-.02 1.972 0 1.684.08 2.717.247 3.096.147.335.437.503.872.503.476 0 1.062-.091 1.762-.271v.69c-2.731.918-4.453 1.377-5.157 1.377-.778 0-1.168-.435-1.168-1.31 0-.358.036-1.14.109-2.35.041-.738.062-1.652.062-2.733 0-.93-.05-1.58-.143-1.952a1.553 1.553 0 00-.517-.774 1.306 1.306 0 00-.81-.267c-.525 0-1.058.2-1.591.594a3.93 3.93 0 00-1.185 1.497c-.199.43-.297 1.05-.297 1.86 0 1.668.049 3.26.151 4.772h.002zm15.513-9.71l2.841.224v.595h-2.878a65.093 65.093 0 00-.078 3.001c0 2.302.074 3.687.217 4.154.077.255.178.435.296.535.167.155.427.236.778.236.582 0 1.225-.144 1.933-.428v.703c-2.055.902-3.713 1.353-4.974 1.353-1.112 0-1.669-.619-1.669-1.856 0-.392.02-.902.057-1.533.073-1.468.118-3.527.135-6.165h-2.341v-.607l2.353-.144c0-.845-.013-1.808-.037-2.873l-.013-.623a99.75 99.75 0 003.786-1.8 79.07 79.07 0 00-.407 5.228h.001zM318.88 96.04h-1.454c-.176-3.071-.42-5.027-.722-5.867-.264-.701-.966-1.37-2.119-1.998-1.678-.925-3.513-1.382-5.524-1.382-4.256 0-7.409 2.105-9.469 6.324-1.815 3.678-2.723 8.153-2.723 13.436 0 5.198.898 9.641 2.694 13.34.986 2.031 2.323 3.678 4.003 4.922 1.678 1.264 3.494 1.903 5.436 1.903 3.113 0 6.062-1.17 8.844-3.518.77-.639 1.61-1.521 2.518-2.648h.292c-.438 2.041-.78 3.933-1.005 5.698-4.314 1.923-8.56 2.891-12.737 2.891-6.599 0-11.508-2.222-14.74-6.665-2.723-3.741-4.09-8.525-4.09-14.36 0-5.05 1.026-9.492 3.066-13.34 3.601-6.814 9.819-10.216 18.652-10.216 3.954 0 7.634.66 11.05 1.968-.82 3.879-1.474 7.046-1.972 9.512zm31.167 7.314l-4.919 6.015c-.732-1.445-1.396-2.487-2.011-3.124-.566-.638-1.22-.957-1.943-.957-.976 0-1.835.574-2.576 1.711-.713 1.053-1.162 2.467-1.348 4.231-.136 1.307-.205 3.158-.205 5.56 0 2.285.098 5.74.304 10.364l-8.61 1.859c.381-5.665.576-11.427.576-17.283 0-3.933-.176-6.357-.537-7.293-.156-.456-.605-.754-1.347-.871-.605-.127-1.395-.191-2.362-.191l-1.308.043h-.713v-1.521l14.612-3.241c-.204 2.944-.311 5.197-.311 6.76 1.083-1.552 2.186-2.828 3.318-3.837 1.805-1.648 3.338-2.477 4.598-2.477 1.512 0 3.103 1.414 4.782 4.252zm22.363 20.122v1.807c-6.52 2.444-10.601 3.666-12.24 3.666-.752 0-1.367-.201-1.865-.594-.556-.437-.83-1.499-.83-3.2 0-.851.099-3.71.284-8.588.049-1.329.068-2.732.068-4.231 0-4.954-.273-7.717-.83-8.281-.41-.414-1.688-.616-3.855-.616-.254 0-.801 0-1.64.011v-1.52l14.729-3.242c-.449 6.452-.673 11.724-.673 15.838 0 4.347.176 7.069.517 8.152.147.468.332.808.537.989.362.33.908.5 1.63.5 1.103 0 2.489-.233 4.168-.691zm-10.356-41.084c.976 0 1.835.393 2.596 1.18.761.765 1.142 1.743 1.142 2.924 0 1.158-.352 2.125-1.055 2.911-.741.851-1.649 1.276-2.713 1.276-1.044 0-1.942-.404-2.704-1.212-.761-.83-1.142-1.817-1.142-2.975 0-1.223.401-2.212 1.201-2.956.8-.765 1.689-1.148 2.675-1.148zm30.747 17.634l-1.543 7.749h-1.229c0-.829-.03-1.913-.088-3.252-.419-1.02-.918-1.807-1.484-2.338-.996-.946-2.07-1.425-3.241-1.425-1.083 0-1.981.372-2.684 1.116-.693.712-1.034 1.605-1.034 2.679 0 1.307.566 2.498 1.688 3.582.723.659 2.313 1.765 4.773 3.295 2.265 1.414 3.787 2.519 4.569 3.327 1.239 1.286 1.854 2.923 1.854 4.921 0 2.212-.741 4.168-2.226 5.847-2.04 2.285-5.32 3.422-9.828 3.422-3.944 0-7.283-.999-10.025-2.986l3.602-5.357h.282c.283 1.35.693 2.465 1.221 3.337 1.161 1.935 2.654 2.902 4.471 2.902 1.161 0 2.137-.446 2.937-1.339.791-.872 1.191-1.903 1.191-3.115 0-1.467-.693-2.785-2.079-3.944-.4-.318-1.718-1.189-3.953-2.614-2.528-1.638-4.198-3.167-5.008-4.581a8.225 8.225 0 01-1.141-4.231c0-3.04 1.239-5.272 3.718-6.686 1.962-1.116 4.393-1.68 7.282-1.68 2.675 0 5.329.457 7.975 1.371zm18.175 1.298l6.813.594v1.585h-6.901a192.535 192.535 0 00-.186 7.993c0 6.133.176 9.821.518 11.065.185.68.43 1.158.713 1.425.4.414 1.025.626 1.864.626 1.395 0 2.938-.381 4.637-1.136v1.87c-4.93 2.403-8.903 3.603-11.928 3.603-2.665 0-4.003-1.647-4.003-4.942 0-1.042.049-2.402.137-4.082.175-3.911.283-9.397.322-16.422h-5.613v-1.616l5.642-.383c0-2.254-.029-4.816-.087-7.653l-.029-1.659c2.635-1.307 5.661-2.901 9.077-4.793a236.18 236.18 0 00-.976 13.925zm26.218-2.668c3.738 0 6.647 1.02 8.746 3.05 2.44 2.36 3.66 5.889 3.66 10.577 0 5.718-1.679 10.044-5.026 12.967-2.861 2.467-6.541 3.699-11.04 3.699-4.198 0-7.409-1.264-9.635-3.794-2.157-2.424-3.231-5.75-3.231-9.981 0-3.636.742-6.761 2.226-9.396 2.694-4.752 7.458-7.122 14.3-7.122zm-1.631 2.168c-1.005 0-1.951.382-2.82 1.137-.869.755-1.562 1.786-2.079 3.094-1.084 2.817-1.62 6.143-1.62 9.981 0 3.21.439 5.898 1.308 8.078.966 2.487 2.547 3.731 4.723 3.731 2.07 0 3.602-1.265 4.588-3.795 1.045-2.647 1.562-5.984 1.562-10.013 0-8.142-1.884-12.213-5.662-12.213zm-312.679-4.145c3.738 0 6.647 1.02 8.746 3.05 2.44 2.36 3.66 5.889 3.66 10.577 0 5.718-1.679 10.045-5.026 12.967-2.86 2.467-6.54 3.699-11.04 3.699-4.198 0-7.409-1.264-9.634-3.794-2.158-2.424-3.231-5.751-3.231-9.981 0-3.636.742-6.761 2.225-9.397 2.694-4.751 7.458-7.121 14.3-7.121zm-1.63 2.168c-1.006 0-1.952.383-2.821 1.137-.869.755-1.562 1.786-2.079 3.093-1.084 2.818-1.62 6.144-1.62 9.982 0 3.21.439 5.899 1.308 8.078.966 2.487 2.547 3.731 4.724 3.731 2.07 0 3.602-1.265 4.588-3.795 1.044-2.647 1.561-5.984 1.561-10.013 0-8.142-1.884-12.213-5.661-12.213zm30.181 26.361l-8.463 1.86c.439-6.94.664-13.042.664-18.303 0-3.955-.264-6.198-.801-6.74-.419-.414-1.707-.627-3.865-.627-.264 0-.82.02-1.659.053v-1.53l14.436-3.242-.058 1.18-.147 2.625-.137 2.647-.029 1.126c4.207-5.05 8.551-7.578 13.041-7.578 3.68 0 5.515 2.178 5.515 6.536 0 .893-.02 2.265-.069 4.136a246.981 246.981 0 00-.048 5.25c0 4.486.195 7.239.595 8.248.352.893 1.044 1.341 2.089 1.341 1.142 0 2.548-.245 4.226-.723v1.839c-6.549 2.444-10.678 3.666-12.366 3.666-1.864 0-2.802-1.158-2.802-3.486 0-.956.088-3.04.263-6.261.098-1.966.147-4.401.147-7.281 0-2.477-.117-4.209-.341-5.197a4.202 4.202 0 00-1.24-2.062 2.928 2.928 0 00-1.942-.713c-1.26 0-2.539.532-3.817 1.584-1.22 1.041-2.167 2.37-2.841 3.986-.478 1.148-.712 2.796-.712 4.953 0 4.443.117 8.684.361 12.713zm37.199-25.861l6.813.594v1.585h-6.901a192.375 192.375 0 00-.185 7.993c0 6.133.175 9.821.517 11.065.185.68.429 1.158.712 1.425.4.414 1.025.627 1.865.627 1.396 0 2.938-.382 4.636-1.137v1.87c-4.929 2.403-8.901 3.603-11.928 3.603-2.664 0-4.001-1.647-4.001-4.942 0-1.042.048-2.402.136-4.082.176-3.911.283-9.397.322-16.422h-5.612V99.91l5.641-.383a372.3 372.3 0 00-.088-7.653l-.029-1.659c2.636-1.307 5.661-2.901 9.078-4.793-.459 4.55-.781 9.194-.976 13.925zm34.818 20.865l-.225 1.967c-4.412 3.199-8.795 4.793-13.158 4.793-2.586 0-4.87-.669-6.833-2.019-3.182-2.2-4.773-5.995-4.773-11.373 0-5.327 1.503-9.536 4.52-12.607 2.83-2.86 6.706-4.294 11.625-4.294 2.616 0 4.588.446 5.925 1.339 1.415.956 2.118 2.562 2.118 4.825 0 4.54-2.391 7.696-7.165 9.461-2.255.828-5.115 1.371-8.59 1.648.04 2.072.45 3.879 1.231 5.4 1.366 2.699 3.416 4.049 6.149 4.049 2.382 0 5.437-1.063 9.176-3.189zm-16.672-8.45c.116.022.224.031.342.031.312.043.643.065 1.005.065 1.845 0 3.494-.659 4.968-1.967 1.766-1.594 2.645-3.688 2.645-6.282 0-1.201-.214-2.243-.635-3.114-.575-1.138-1.414-1.712-2.528-1.712-1.454 0-2.704.861-3.757 2.583-1.357 2.222-2.04 5.687-2.04 10.396zM298.072 72.325l-4.363.86c.205-4.262.31-7.938.31-11.015 0-3.19-.076-4.975-.225-5.367-.101-.25-.358-.407-.764-.457-.355-.04-.91-.064-1.667-.072v-.672l6.709-1.171-.093 1.374c1.429-.916 2.833-1.374 4.213-1.374.781 0 1.501.188 2.169.563 1.188.65 1.78 1.92 1.78 3.805 0 2.205-.608 3.93-1.827 5.188a5.87 5.87 0 01-1.908 1.272 6.099 6.099 0 01-2.402.493 6.758 6.758 0 01-2.122-.34c0 2.392.066 4.697.19 6.913zm1.919-16.414c-.563 0-1.078.234-1.544.7-.338.345-.52.822-.54 1.433a99.03 99.03 0 00-.048 3.547c0 1.225.076 1.992.233 2.305.149.283.382.521.704.713.35.216.717.32 1.099.32.487 0 .909-.202 1.28-.606.656-.72.982-2.133.982-4.236 0-1.232-.125-2.184-.375-2.857a2.16 2.16 0 00-.76-.998 1.712 1.712 0 00-1.031-.321zm11.063 1.98l-2.277-.355c.338-1.054.909-1.794 1.71-2.224 1.115-.587 2.656-.881 4.62-.881 2.121 0 3.461.348 4.016 1.045.238.298.355.81.355 1.534 0 .153-.006.521-.013 1.105-.008.665-.013 1.432-.013 2.305 0 1.629.093 2.623.274 2.983.149.297.414.447.801.447.567 0 1.135-.102 1.702-.31v.748c-1.65.591-2.842.983-3.57 1.175-.732.191-1.383.289-1.956.289-.873 0-1.307-.419-1.307-1.256 0-.118.002-.243.007-.38-.676.43-1.268.747-1.771.955a8.3 8.3 0 01-3.312.68c-.941 0-1.605-.187-1.992-.563-.39-.38-.588-.994-.588-1.836 0-1.405.435-2.45 1.309-3.131.966-.736 3.119-1.265 6.459-1.598-.008-.9-.093-1.557-.258-1.968a1.8 1.8 0 00-.769-.881 2.235 2.235 0 00-1.223-.333c-.841 0-1.437.313-1.783.94-.173.312-.314.818-.423 1.51h.002zm4.439 1.66a5.74 5.74 0 00-.656-.047c-.804 0-1.485.176-2.041.529-.631.403-.949 1.108-.949 2.118 0 .677.161 1.198.483 1.557.25.283.58.423.994.423.532 0 1.018-.18 1.457-.54.415-.34.656-.748.724-1.213a9.21 9.21 0 00.061-1.214c0-.313-.008-.626-.026-.94-.023-.45-.04-.673-.048-.673h.001zm15.189 4v.792c-2.838.94-4.709 1.409-5.61 1.409-.455 0-.818-.133-1.087-.403-.173-.177-.258-.478-.258-.905 0-.36.026-.959.072-1.8.081-1.464.121-3.351.121-5.672 0-2.079-.048-4.138-.14-6.174-.033-.7-.109-1.112-.226-1.225-.237-.223-.966-.34-2.193-.356h-.048v-.654l6.777-1.135a184.025 184.025 0 00-.282 10.569c0 2.76.08 4.487.246 5.175.112.45.414.678.909.678.479 0 1.05-.098 1.719-.298zm3.529-5.66l-2.278-.355c.338-1.054.909-1.794 1.71-2.224 1.115-.587 2.656-.881 4.621-.881 2.12 0 3.46.348 4.016 1.045.237.298.354.81.354 1.534 0 .153-.005.521-.013 1.105-.008.665-.013 1.432-.013 2.305 0 1.629.092 2.623.274 2.983.148.297.414.447.8.447.567 0 1.136-.102 1.703-.31v.748c-1.65.591-2.841.983-3.569 1.175-.733.191-1.385.289-1.957.289-.873 0-1.308-.419-1.308-1.256 0-.118.005-.243.008-.38-.676.43-1.268.747-1.771.955a8.3 8.3 0 01-3.312.68c-.941 0-1.605-.187-1.992-.563-.39-.38-.588-.994-.588-1.836 0-1.405.436-2.45 1.309-3.131.966-.736 3.118-1.265 6.459-1.598-.008-.9-.093-1.557-.258-1.968a1.802 1.802 0 00-.768-.881 2.24 2.24 0 00-1.224-.333c-.841 0-1.437.313-1.783.94-.173.312-.314.818-.422 1.51h.002zm4.438 1.66a5.755 5.755 0 00-.655-.047c-.805 0-1.485.176-2.041.529-.632.403-.949 1.108-.949 2.118 0 .677.161 1.198.482 1.557.249.283.58.423.994.423.532 0 1.018-.18 1.457-.54.415-.34.657-.748.725-1.213.039-.282.06-.686.06-1.214 0-.313-.008-.626-.023-.94-.024-.45-.041-.673-.049-.673h-.001zm7.949-1.55h-.793l.97-3.354c1.561.136 3.369.207 5.409.207 1.77 0 3.34-.028 4.704-.082a87.637 87.637 0 00-3.159 4.69c-1.231 1.953-2.226 3.628-2.983 5.018 1.84-.032 3.961-.494 6.368-1.39l-.696 2.423c-2.218-.106-4.97-.16-8.266-.16-.834 0-1.901.031-3.204.09l.422-.596c2.447-3.338 4.492-6.415 6.141-9.23-2.096 0-3.569.423-4.419 1.264-.104.208-.268.58-.494 1.12zm12.817 0h-.792l.97-3.354c1.561.136 3.369.207 5.409.207 1.77 0 3.34-.028 4.704-.082a87.637 87.637 0 00-3.159 4.69c-1.231 1.953-2.226 3.628-2.982 5.018 1.839-.032 3.961-.494 6.367-1.39l-.697 2.423c-2.217-.106-4.97-.16-8.265-.16-.834 0-1.9.031-3.205.09l.423-.596c2.447-3.338 4.492-6.415 6.142-9.23-2.097 0-3.57.423-4.419 1.264-.105.208-.269.58-.496 1.12zm18.9-3.57c1.658 0 2.949.391 3.879 1.178 1.083.916 1.627 2.263 1.627 4.04 0 1.52-.387 2.795-1.156 3.825-1.147 1.518-3.01 2.278-5.59 2.278-1.806 0-3.231-.45-4.266-1.35-1.046-.917-1.569-2.193-1.569-3.825 0-1.296.317-2.45.954-3.469 1.126-1.785 3.163-2.677 6.121-2.677zm-.769.822c-.861 0-1.461.513-1.791 1.542-.273.842-.41 1.852-.41 3.034 0 1.206.124 2.255.378 3.143.375 1.32 1.006 1.981 1.895 1.981.544 0 .979-.222 1.309-.673.526-.712.788-1.957.788-3.742s-.204-3.163-.612-4.142c-.322-.764-.84-1.143-1.557-1.143zM276.664 174.686c.674 0 1.22.585 1.22 1.307s-.546 1.308-1.22 1.308c-.673 0-1.219-.586-1.219-1.308 0-.722.546-1.307 1.219-1.307zm3.498 0c.674 0 1.22.585 1.22 1.307s-.546 1.308-1.22 1.308c-.673 0-1.219-.586-1.219-1.308 0-.722.546-1.307 1.219-1.307zM96.63 155.15l-1.885 2.324c-.192-.395-.347-.679-.466-.85-.298-.457-.612-.686-.948-.686-.234 0-.438.107-.612.319-.175.215-.297.513-.375.891-.075.403-.114 1.142-.114 2.221 0 .566.03 1.603.088 3.119l.019.497-3.375.589c.133-2.134.2-4.035.2-5.701 0-1.044-.035-1.724-.103-2.043-.071-.319-.23-.517-.475-.59-.214-.062-.55-.09-1.006-.09-.246-.006-.424-.011-.531-.011v-.6l5.393-1.038a51.842 51.842 0 00-.103 2.113c.465-.597.94-1.079 1.42-1.443.482-.364.88-.545 1.193-.545.489 0 1.049.507 1.679 1.523l.001.001zm14.057 6.425v.712c-2.316.833-3.778 1.249-4.387 1.249-.75 0-1.126-.406-1.126-1.218 0-.212.01-.5.029-.864-.598.531-1.103.93-1.514 1.194-.883.593-1.838.888-2.859.888-.683 0-1.171-.145-1.466-.437-.295-.291-.44-.771-.44-1.436 0-.108.008-.317.016-.622.03-1.099.042-2.029.042-2.789 0-1.724-.1-2.686-.301-2.883-.172-.163-.686-.244-1.54-.244-.052.003-.142.009-.275.009v-.601l5.415-1.037a59.632 59.632 0 00-.213 5.048c0 .864.029 1.52.084 1.968.097.808.437 1.214 1.022 1.214.301 0 .634-.115 1-.347.366-.232.641-.5.825-.805.12-.198.2-.5.246-.909.042-.41.064-1.072.064-1.988 0-.132-.045-1.277-.136-3.439l3.465-.742a88.285 88.285 0 00-.184 5.978c0 .933.061 1.562.181 1.881.119.315.356.475.705.475.343 0 .793-.084 1.346-.254l.001-.001zm6.883-7.608l-.589 2.699h-.484c.013-.27.018-.44.018-.517 0-.066-.005-.239-.018-.514-.114-.388-.262-.682-.444-.884-.33-.347-.695-.521-1.1-.521-.327 0-.602.112-.825.337a1.15 1.15 0 00-.33.844c0 .35.13.659.385.923.256.263.848.693 1.783 1.29.708.447 1.203.825 1.488 1.138.385.42.576.95.576 1.596 0 .749-.253 1.416-.757 1.999-.689.786-1.873 1.179-3.553 1.179-1.403 0-2.548-.319-3.438-.954l1.45-1.936c.339 1.44.927 2.162 1.759 2.162.356 0 .667-.143.935-.424.269-.281.402-.61.402-.989 0-.385-.121-.707-.357-.964s-.786-.66-1.644-1.211c-.753-.472-1.283-.93-1.591-1.374-.31-.444-.466-.961-.466-1.551 0-.899.331-1.593.99-2.071.66-.483 1.604-.722 2.831-.722.999 0 1.993.156 2.979.465zm8.919 0l-.589 2.699h-.485c.013-.27.018-.44.018-.517 0-.066-.005-.239-.018-.514-.113-.388-.262-.682-.443-.884-.33-.347-.695-.521-1.1-.521-.327 0-.602.112-.825.337a1.15 1.15 0 00-.33.844c0 .35.13.659.385.923.256.263.848.693 1.783 1.29.708.447 1.203.825 1.488 1.138.385.42.576.95.576 1.596 0 .749-.252 1.416-.757 1.999-.689.786-1.873 1.179-3.553 1.179-1.403 0-2.548-.319-3.438-.954l1.449-1.936c.34 1.44.928 2.162 1.76 2.162.356 0 .666-.143.935-.424.268-.281.401-.61.401-.989 0-.385-.12-.707-.356-.964s-.786-.66-1.644-1.211c-.753-.472-1.283-.93-1.591-1.374-.31-.444-.466-.961-.466-1.551 0-.899.33-1.593.99-2.071.66-.483 1.604-.722 2.831-.722 1 0 1.993.156 2.979.465zm8.757 7.619v.701c-2.267.833-3.746 1.249-4.441 1.249-.365 0-.631-.09-.789-.27-.162-.181-.243-.473-.243-.879 0-.436.023-1.196.065-2.279.021-.59.032-1.221.032-1.894 0-1.683-.107-2.627-.32-2.838-.165-.157-.77-.236-1.815-.243v-.601l5.454-1.037c-.142 1.982-.213 3.622-.213 4.927 0 1.53.051 2.488.152 2.862.1.379.349.566.753.566.321 0 .773-.086 1.365-.264zm-3.636-13.226c.392 0 .728.153 1.006.458.279.306.418.666.418 1.089 0 .441-.139.812-.418 1.117-.278.306-.62.459-1.025.459-.405 0-.75-.153-1.038-.462a1.575 1.575 0 01-.431-1.114c0-.43.143-.794.431-1.096.288-.302.64-.451 1.057-.451zm10.537 5.607l-.589 2.699h-.485c.013-.27.018-.44.018-.517 0-.066-.005-.239-.018-.514-.114-.388-.262-.682-.443-.884-.33-.347-.696-.521-1.101-.521-.326 0-.601.112-.824.337-.22.222-.331.504-.331.844 0 .35.13.659.386.923.255.263.847.693 1.783 1.29.707.447 1.203.825 1.487 1.138.386.42.576.95.576 1.596 0 .749-.252 1.416-.757 1.999-.689.786-1.873 1.179-3.552 1.179-1.404 0-2.549-.319-3.439-.954l1.45-1.936c.34 1.44.928 2.162 1.759 2.162.356 0 .667-.143.936-.424.268-.281.401-.61.401-.989 0-.385-.12-.707-.357-.964-.235-.257-.785-.66-1.643-1.211-.753-.472-1.284-.93-1.591-1.374-.311-.444-.466-.961-.466-1.551 0-.899.33-1.593.99-2.071.66-.483 1.604-.722 2.831-.722.999 0 1.992.156 2.979.465zm9.786 2.845h-.502c-.012-.579-.045-1.003-.094-1.266a1.646 1.646 0 00-.488-.882 1.508 1.508 0 00-1.084-.434c-.766 0-1.329.472-1.685 1.42-.33.867-.495 1.828-.495 2.882 0 2.461.87 3.693 2.614 3.693.831 0 1.689-.292 2.568-.871v.732a7.147 7.147 0 01-4.377 1.45c-1.29 0-2.309-.423-3.063-1.27-.683-.767-1.022-1.86-1.022-3.275 0-1.992.601-3.452 1.802-4.382.95-.739 2.183-1.107 3.694-1.107.954 0 1.87.173 2.75.517l-.618 2.793zm5.645 6.165l-3.326.59c.051-.725.097-1.926.139-3.605.042-1.679.062-3.098.062-4.256 0-1.274-.016-2.586-.053-3.931-.035-1.351-.071-2.114-.109-2.287-.049-.24-.204-.399-.46-.479-.255-.08-.753-.122-1.494-.122v-.579l5.347-1.006c-.122 2.275-.184 4.111-.184 5.506l.013 2.554v.579c.583-.683 1.126-1.2 1.631-1.544.886-.596 1.802-.895 2.75-.895.688 0 1.193.198 1.514.59.32.391.478 1.013.478 1.86l-.039 2.442c0 1.388.062 2.342.182 2.856.045.225.123.378.236.468.117.086.284.132.514.132.344 0 .803-.091 1.379-.275v.712c-2.281.833-3.798 1.249-4.559 1.249-.365 0-.63-.093-.789-.281-.162-.184-.243-.493-.243-.92 0-.291.018-.898.058-1.821a66.44 66.44 0 00.078-2.512c0-.746-.046-1.291-.133-1.638-.145-.562-.482-.843-1.009-.843-.637 0-1.197.354-1.672 1.066-.195.284-.314.555-.35.805-.038.249-.058.857-.058 1.817 0 1.336.032 2.592.097 3.768zm17.579-1.755l-.075.7a9.246 9.246 0 01-2.349 1.194c-.828.281-1.624.42-2.387.42a4.43 4.43 0 01-1.734-.337 3.419 3.419 0 01-1.316-.933c-.663-.773-.994-1.86-.994-3.264 0-1.166.233-2.183.699-3.05.871-1.635 2.51-2.45 4.921-2.45.983 0 1.724.163 2.222.489.518.33.777.892.777 1.686 0 .763-.204 1.416-.612 1.954-.404.537-1.003.936-1.792 1.194-.757.242-1.718.406-2.886.488-.032.188-.048.32-.048.396 0 .315.074.649.222.992.15.347.344.642.583.896.415.419.935.628 1.569.628.867 0 1.935-.333 3.2-1.003zm-5.555-2.682c.165.014.291.022.379.022.643 0 1.177-.229 1.601-.691.491-.527.738-1.235.738-2.13 0-.458-.084-.826-.252-1.1-.166-.275-.39-.41-.667-.41-.544 0-.971.378-1.288 1.132-.313.753-.485 1.814-.511 3.178v-.001zm7.822 2.783l2.692-1.76c.527 1.329.793 2.224.793 2.682 0 .282-.098.593-.295.947-.194.351-.56.875-1.097 1.565a252.78 252.78 0 01-1.468 1.85l-.457-.375c.078-.135.159-.281.246-.438.333-.576.557-.999.67-1.266.113-.267.168-.514.168-.735 0-.355-.204-.85-.611-1.495l-.424-.649a8.368 8.368 0 01-.217-.326zm19.976-9.021l2.048-.58c-.071 1.058-.372 1.776-.909 2.155-.376.253-1.045.426-2.009.52.327.344.563.711.708 1.097.146.385.217.846.217 1.381 0 .926-.249 1.699-.747 2.314a2.975 2.975 0 01-1.362.975c-.55.197-1.375.329-2.478.395-.625.041-1.061.132-1.307.274-.339.205-.511.49-.511.854s.161.611.482.735c.32.125.984.198 1.986.219.89.014 1.559.049 2.009.108.45.059.857.148 1.223.277.524.198.928.531 1.21 1.003.285.468.427 1.048.427 1.731 0 1.169-.385 2.131-1.155 2.884-.495.471-1.2.839-2.119 1.099-.919.26-1.973.392-3.167.392-1.314 0-2.388-.208-3.222-.628-.987-.499-1.479-1.284-1.479-2.349 0-.725.224-1.308.667-1.752.252-.264.676-.538 1.271-.823-.371-.433-.559-.901-.559-1.401 0-.61.184-1.134.553-1.568.372-.434.954-.819 1.75-1.159-1.666-.406-2.498-1.464-2.498-3.175 0-.874.224-1.61.673-2.209.346-.462.861-.82 1.544-1.08.682-.256 1.458-.385 2.332-.385.378 0 1.087.073 2.129.219.262.035.52.052.779.052.525 0 .899-.122 1.126-.361.226-.239.356-.646.388-1.214zm-4.409 2.033c-.479 0-.835.232-1.068.7-.233.469-.349 1.184-.349 2.138 0 .756.084 1.37.256 1.842a1.193 1.193 0 001.132.836c.925 0 1.388-.957 1.388-2.869 0-1.724-.454-2.605-1.359-2.647zm-3.174 10.523a3.374 3.374 0 00-.534 1.829c0 .763.295 1.398.881 1.911.614.538 1.365.809 2.254.809.796 0 1.423-.181 1.886-.545a2.25 2.25 0 00.638-.871c.161-.364.242-.739.242-1.131 0-.594-.152-1.041-.459-1.339-.304-.299-.802-.493-1.495-.579-.278-.035-.873-.053-1.786-.053-.769 0-1.31-.011-1.627-.031zm18.123-3.636l-.075.7a9.257 9.257 0 01-2.348 1.194c-.829.281-1.625.42-2.388.42a4.43 4.43 0 01-1.734-.337 3.419 3.419 0 01-1.316-.933c-.663-.773-.994-1.86-.994-3.264 0-1.166.233-2.183.699-3.05.871-1.635 2.511-2.45 4.921-2.45.983 0 1.724.163 2.223.489.517.33.776.892.776 1.686 0 .763-.204 1.416-.612 1.954-.404.537-1.003.936-1.792 1.194-.757.242-1.718.406-2.886.488-.032.188-.048.32-.048.396 0 .315.074.649.223.992.149.347.343.642.582.896.415.419.935.628 1.57.628.866 0 1.934-.333 3.199-1.003zm-5.555-2.682c.165.014.291.022.379.022.643 0 1.178-.229 1.601-.691.491-.527.738-1.235.738-2.13 0-.458-.084-.826-.252-1.1-.166-.275-.389-.41-.667-.41-.544 0-.971.378-1.288 1.132-.313.753-.485 1.814-.511 3.178v-.001zm12.529-5.038c1.346 0 2.391.347 3.138 1.044.871.813 1.307 2.009 1.307 3.591 0 1.34-.31 2.467-.929 3.379-.921 1.347-2.416 2.02-4.483 2.02-1.459 0-2.607-.399-3.439-1.197-.841-.812-1.262-1.946-1.262-3.4 0-1.142.256-2.162.767-3.053.912-1.583 2.543-2.377 4.901-2.384zm-.54.728c-.741 0-1.246.455-1.511 1.368-.223.736-.336 1.637-.336 2.702 0 1.419.162 2.523.488 3.317.327.795.783 1.191 1.368 1.191 1.13 0 1.696-1.315 1.696-3.949 0-1.555-.165-2.758-.498-3.615-.256-.65-.657-.985-1.207-1.014zm15.01.92l-1.885 2.324c-.192-.395-.346-.679-.466-.85-.298-.457-.612-.686-.948-.686-.233 0-.437.107-.612.319-.174.215-.297.513-.375.891-.074.403-.113 1.142-.113 2.221 0 .566.029 1.603.088 3.119l.018.497-3.374.589c.132-2.134.2-4.035.2-5.701 0-1.044-.035-1.724-.103-2.043-.072-.319-.23-.517-.476-.59-.213-.062-.55-.09-1.006-.09-.246-.006-.424-.011-.531-.011v-.6l5.393-1.038a51.487 51.487 0 00-.103 2.113c.466-.597.941-1.079 1.42-1.443.482-.364.88-.545 1.194-.545.488 0 1.048.507 1.678 1.523l.001.001zm9.586-2.848l2.048-.58c-.071 1.058-.372 1.776-.909 2.155-.376.253-1.045.426-2.009.52.327.344.563.711.708 1.097.146.385.217.846.217 1.381 0 .926-.249 1.699-.747 2.314a2.975 2.975 0 01-1.362.975c-.55.197-1.375.329-2.478.395-.625.041-1.061.132-1.307.274-.34.205-.511.49-.511.854s.161.611.482.735c.32.125.984.198 1.986.219.89.014 1.559.049 2.009.108.45.059.857.148 1.223.277.524.198.928.531 1.21 1.003.285.468.427 1.048.427 1.731 0 1.169-.385 2.131-1.155 2.884-.495.471-1.2.839-2.119 1.099-.919.26-1.973.392-3.167.392-1.314 0-2.388-.208-3.222-.628-.987-.499-1.479-1.284-1.479-2.349 0-.725.224-1.308.667-1.752.252-.264.676-.538 1.272-.823-.373-.433-.56-.901-.56-1.401 0-.61.184-1.134.553-1.568.372-.434.954-.819 1.75-1.159-1.666-.406-2.498-1.464-2.498-3.175 0-.874.224-1.61.673-2.209.346-.462.861-.82 1.544-1.08.682-.256 1.458-.385 2.332-.385.378 0 1.087.073 2.129.219.262.035.52.052.779.052.525 0 .899-.122 1.126-.361.226-.239.356-.646.388-1.214zm-4.409 2.033c-.479 0-.835.232-1.067.7-.234.469-.35 1.184-.35 2.138 0 .756.084 1.37.256 1.842a1.193 1.193 0 001.132.836c.925 0 1.388-.957 1.388-2.869 0-1.724-.454-2.605-1.359-2.647zm-3.174 10.523a3.374 3.374 0 00-.534 1.829c0 .763.295 1.398.881 1.911.614.538 1.365.809 2.254.809.796 0 1.423-.181 1.886-.545a2.25 2.25 0 00.638-.871c.161-.364.242-.739.242-1.131 0-.594-.152-1.041-.459-1.339-.304-.299-.802-.493-1.495-.579-.278-.035-.874-.053-1.785-.053-.77 0-1.311-.011-1.628-.031zm16.324-3.272v.701c-2.268.833-3.746 1.249-4.441 1.249-.366 0-.631-.09-.79-.27-.161-.181-.243-.473-.243-.879 0-.436.023-1.196.066-2.279.023-.59.032-1.221.032-1.894 0-1.683-.107-2.627-.321-2.838-.165-.157-.769-.236-1.815-.243v-.601l5.455-1.037c-.143 1.982-.214 3.622-.214 4.927 0 1.53.052 2.488.152 2.862.101.379.349.566.754.566.32 0 .773-.086 1.365-.264zm-3.636-13.226c.392 0 .728.153 1.006.458.279.306.417.666.417 1.089 0 .441-.138.812-.417 1.117a1.333 1.333 0 01-1.025.459 1.37 1.37 0 01-1.039-.462 1.574 1.574 0 01-.43-1.114c0-.43.142-.794.43-1.096.289-.302.64-.451 1.058-.451zm10.537 5.607l-.589 2.699h-.486c.013-.27.019-.44.019-.517 0-.066-.006-.239-.019-.514-.113-.388-.261-.682-.443-.884-.33-.347-.695-.521-1.1-.521-.326 0-.602.112-.825.337a1.15 1.15 0 00-.33.844c0 .35.13.659.385.923.256.263.848.693 1.783 1.29.708.447 1.203.825 1.488 1.138.385.42.576.95.576 1.596 0 .749-.252 1.416-.757 1.999-.689.786-1.873 1.179-3.553 1.179-1.403 0-2.548-.319-3.438-.954l1.449-1.936c.34 1.44.929 2.162 1.76 2.162.356 0 .667-.143.935-.424.269-.281.402-.61.402-.989 0-.385-.121-.707-.357-.964s-.786-.66-1.643-1.211c-.754-.472-1.284-.93-1.592-1.374-.31-.444-.466-.961-.466-1.551 0-.899.331-1.593.99-2.071.66-.483 1.605-.722 2.831-.722 1 0 1.993.156 2.98.465zm9.786 2.845h-.502c-.013-.579-.046-1.003-.094-1.266a1.648 1.648 0 00-.489-.882 1.505 1.505 0 00-1.083-.434c-.767 0-1.33.472-1.685 1.42-.331.867-.495 1.828-.495 2.882 0 2.461.87 3.693 2.613 3.693.832 0 1.689-.292 2.569-.871v.732a7.147 7.147 0 01-4.377 1.45c-1.29 0-2.309-.423-3.064-1.27-.682-.767-1.022-1.86-1.022-3.275 0-1.992.602-3.452 1.802-4.382.951-.739 2.184-1.107 3.695-1.107.953 0 1.869.173 2.749.517l-.617 2.793zm5.644 6.165l-3.325.59c.051-.725.097-1.926.139-3.605.042-1.679.061-3.098.061-4.256 0-1.274-.015-2.586-.052-3.931-.035-1.351-.071-2.114-.109-2.287-.049-.24-.204-.399-.46-.479-.256-.08-.754-.122-1.495-.122v-.579l5.348-1.006c-.123 2.275-.184 4.111-.184 5.506l.013 2.554v.579c.582-.683 1.126-1.2 1.63-1.544.887-.596 1.802-.895 2.75-.895.689 0 1.194.198 1.514.59.32.391.479 1.013.479 1.86l-.039 2.442c0 1.388.062 2.342.181 2.856.046.225.124.378.236.468.117.086.285.132.515.132.343 0 .802-.091 1.378-.275v.712c-2.281.833-3.798 1.249-4.558 1.249-.366 0-.631-.093-.789-.281-.162-.184-.243-.493-.243-.92 0-.291.018-.898.058-1.821a66.44 66.44 0 00.078-2.512c0-.746-.046-1.291-.133-1.638-.145-.562-.482-.843-1.009-.843-.638 0-1.197.354-1.673 1.066-.194.284-.314.555-.349.805-.039.249-.059.857-.059 1.817 0 1.336.033 2.592.098 3.768h-.001zm17.579-1.755l-.075.7a9.24 9.24 0 01-2.348 1.194c-.828.281-1.624.42-2.387.42a4.431 4.431 0 01-1.735-.337 3.427 3.427 0 01-1.316-.933c-.663-.773-.993-1.86-.993-3.264 0-1.166.233-2.183.699-3.05.87-1.635 2.51-2.45 4.92-2.45.984 0 1.724.163 2.223.489.517.33.776.892.776 1.686 0 .763-.204 1.416-.612 1.954-.404.537-1.003.936-1.791 1.194-.757.242-1.718.406-2.886.488-.033.188-.049.32-.049.396 0 .315.075.649.223.992.149.347.343.642.583.896.414.419.934.628 1.569.628.866 0 1.934-.333 3.199-1.003zm-5.554-2.682c.164.014.291.022.379.022.643 0 1.177-.229 1.6-.691.492-.527.738-1.235.738-2.13 0-.458-.084-.826-.252-1.1-.165-.275-.389-.41-.667-.41-.544 0-.97.378-1.287 1.132-.314.753-.485 1.814-.511 3.178v-.001zm7.822 2.783l2.691-1.76c.528 1.329.793 2.224.793 2.682 0 .282-.097.593-.295.947-.193.351-.559.875-1.096 1.565a218.14 218.14 0 01-1.469 1.85l-.456-.375c.078-.135.159-.281.246-.438.333-.576.556-.999.67-1.266.113-.267.168-.514.168-.735 0-.355-.204-.85-.611-1.495l-.425-.649a9.63 9.63 0 01-.216-.326zm21.846 1.359l-3.452.885a92.95 92.95 0 00-1.592-2.65 55.498 55.498 0 00-1.572-2.439l-.379.301c0 1.343.03 2.741.094 4.198l-3.364.59c.132-2.092.201-4.885.201-8.375 0-3.251-.055-5.157-.162-5.711-.049-.239-.201-.399-.457-.479-.252-.08-.744-.122-1.478-.122v-.579l5.383-1.006-.02.537c-.145 3.255-.22 6.187-.22 8.803 0 .361.008.819.023 1.374a39.425 39.425 0 001.763-2.162 24.546 24.546 0 001.372-1.977l2.759-.323-.436.354c-1.479 1.173-2.417 1.936-2.815 2.286a93.505 93.505 0 002.132 3.296 102.17 102.17 0 002.22 3.199z"/><path d="M315.281 156.569l-1.831-.316c.272-.933.731-1.589 1.375-1.97.896-.521 2.136-.781 3.714-.781 1.705 0 2.779.306 3.219.916.197.271.294.767.294 1.485l-.018 2.46c0 1.031.008 1.7.023 2.012.016.313.058.604.129.875.094.399.343.6.741.6a3.56 3.56 0 001.339-.275v.664c-1.307.517-2.258.864-2.856 1.037-.596.174-1.129.26-1.605.26-.689 0-1.032-.368-1.032-1.103 0-.09.003-.205.005-.347-.741.517-1.423.888-2.047 1.113a5.856 5.856 0 01-2.009.337c-.758 0-1.298-.163-1.621-.493-.32-.329-.482-.878-.482-1.644 0-1.375.43-2.349 1.287-2.921.861-.576 2.514-.993 4.956-1.26-.005-.798-.074-1.381-.207-1.745a1.564 1.564 0 00-.617-.781 1.714 1.714 0 00-.983-.295c-.677 0-1.156.278-1.434.833-.14.277-.252.725-.34 1.339zm3.569 1.471a5.38 5.38 0 00-.521-.042c-.79 0-1.395.202-1.809.601-.414.403-.621.985-.621 1.745 0 .479.075.861.227 1.155.21.413.54.622.989.622.314 0 .622-.098.92-.296.297-.197.523-.45.682-.756.126-.257.191-.787.191-1.592 0-.209-.006-.504-.024-.878-.015-.372-.028-.559-.035-.559h.001zm18.497 3.535v.712c-2.316.833-3.778 1.249-4.386 1.249-.751 0-1.126-.406-1.126-1.218 0-.212.01-.5.029-.864-.599.531-1.103.93-1.514 1.194-.884.593-1.838.888-2.86.888-.682 0-1.171-.145-1.465-.437-.295-.291-.44-.771-.44-1.436 0-.108.007-.317.015-.622.029-1.099.042-2.029.042-2.789 0-1.724-.1-2.686-.301-2.883-.172-.163-.686-.244-1.54-.244-.051.003-.142.009-.275.009v-.601l5.416-1.037a59.218 59.218 0 00-.214 5.048c0 .864.03 1.52.085 1.968.097.808.436 1.214 1.022 1.214.3 0 .633-.115.999-.347.366-.232.641-.5.825-.805.12-.198.2-.5.246-.909.042-.41.064-1.072.064-1.988 0-.132-.045-1.277-.135-3.439l3.465-.742a87.596 87.596 0 00-.185 5.978c0 .933.061 1.562.181 1.881.12.315.356.475.705.475.343 0 .793-.084 1.346-.254l.001-.001zm11.235 1.107l-3.451.885a95.343 95.343 0 00-1.592-2.65 54.454 54.454 0 00-1.573-2.439l-.378.301c0 1.343.029 2.741.094 4.198l-3.365.59c.133-2.092.201-4.885.201-8.375 0-3.251-.055-5.157-.162-5.711-.048-.239-.2-.399-.456-.479-.253-.08-.744-.122-1.479-.122v-.579l5.384-1.006-.021.537c-.145 3.255-.22 6.187-.22 8.803 0 .361.008.819.023 1.374a39.425 39.425 0 001.763-2.162 24.546 24.546 0 001.372-1.977l2.759-.323-.436.354c-1.479 1.173-2.417 1.936-2.814 2.286a91.72 91.72 0 002.131 3.296 102.17 102.17 0 002.22 3.199zm3.545-6.113l-1.831-.316c.272-.933.732-1.589 1.375-1.97.897-.521 2.135-.781 3.714-.781 1.705 0 2.779.306 3.219.916.197.271.294.767.294 1.485l-.018 2.46c0 1.031.008 1.7.023 2.012.016.313.058.604.13.875.093.399.342.6.74.6.437 0 .884-.091 1.339-.275v.664c-1.306.517-2.258.864-2.856 1.037-.596.174-1.129.26-1.604.26-.69 0-1.033-.368-1.033-1.103 0-.09.003-.205.008-.347-.741.517-1.423.888-2.047 1.113a5.866 5.866 0 01-2.01.337c-.757 0-1.297-.163-1.621-.493-.32-.329-.482-.878-.482-1.644 0-1.375.431-2.349 1.288-2.921.861-.576 2.513-.993 4.956-1.26-.005-.798-.074-1.381-.207-1.745a1.571 1.571 0 00-.618-.781 1.711 1.711 0 00-.983-.295c-.676 0-1.155.278-1.434.833-.139.277-.252.725-.339 1.339h-.003zm3.569 1.471a5.38 5.38 0 00-.521-.042c-.79 0-1.395.202-1.808.601-.414.403-.622.985-.622 1.745 0 .479.075.861.227 1.155.21.413.54.622.989.622.314 0 .622-.098.92-.296.297-.197.523-.45.682-.756.126-.257.191-.787.191-1.592 0-.209-.008-.504-.024-.878-.015-.372-.028-.559-.035-.559h.001zm12.351-4.073l-.589 2.699h-.485c.013-.27.018-.44.018-.517 0-.066-.008-.239-.018-.514-.114-.388-.262-.682-.443-.884-.331-.347-.696-.521-1.101-.521-.327 0-.602.112-.824.337a1.147 1.147 0 00-.331.844c0 .35.13.659.385.923.256.263.848.693 1.783 1.29.708.447 1.203.825 1.488 1.138.385.42.576.95.576 1.596 0 .749-.252 1.416-.757 1.999-.689.786-1.873 1.179-3.552 1.179-1.404 0-2.549-.319-3.439-.954l1.45-1.936c.339 1.44.928 2.162 1.759 2.162.356 0 .667-.143.935-.424.269-.281.402-.61.402-.989 0-.385-.121-.707-.357-.964-.235-.257-.786-.66-1.643-1.212-.754-.471-1.284-.929-1.592-1.373-.31-.444-.466-.961-.466-1.551 0-.899.331-1.593.99-2.071.661-.483 1.605-.722 2.831-.722 1 0 1.993.156 2.98.465zm8.756 7.619v.701c-2.267.833-3.746 1.249-4.441 1.249-.365 0-.631-.09-.789-.27-.162-.181-.243-.473-.243-.879 0-.436.023-1.196.065-2.279.021-.59.032-1.221.032-1.894 0-1.683-.107-2.627-.32-2.838-.165-.157-.77-.236-1.815-.243v-.601l5.454-1.037c-.142 1.982-.213 3.622-.213 4.927 0 1.53.051 2.488.152 2.862.1.379.349.566.753.566.321 0 .774-.086 1.365-.264zm-3.635-13.226c.391 0 .727.153 1.005.458.279.306.418.666.418 1.089 0 .441-.139.812-.418 1.117-.278.306-.62.459-1.025.459-.405 0-.75-.153-1.038-.462a1.574 1.574 0 01-.43-1.114c0-.43.142-.794.43-1.096.288-.302.64-.451 1.058-.451zm10.536 5.607l-.589 2.699h-.485c.013-.27.018-.44.018-.517 0-.066-.007-.239-.018-.514-.113-.388-.262-.682-.443-.884-.33-.347-.695-.521-1.1-.521-.327 0-.602.112-.825.337a1.15 1.15 0 00-.33.844c0 .35.13.659.385.923.255.263.847.693 1.783 1.29.708.447 1.203.825 1.488 1.138.385.42.575.95.575 1.596 0 .749-.252 1.416-.757 1.999-.689.786-1.873 1.179-3.552 1.179-1.403 0-2.549-.319-3.438-.954l1.449-1.936c.34 1.44.928 2.162 1.759 2.162.356 0 .667-.143.936-.424.268-.281.401-.61.401-.989 0-.385-.12-.707-.357-.964-.235-.257-.785-.66-1.643-1.212-.753-.471-1.284-.929-1.591-1.373-.311-.444-.466-.961-.466-1.551 0-.899.33-1.593.99-2.071.66-.483 1.604-.722 2.831-.722.999 0 1.992.156 2.979.465zm9.786 2.845h-.502c-.013-.579-.045-1.003-.093-1.266a1.655 1.655 0 00-.489-.882 1.508 1.508 0 00-1.084-.434c-.766 0-1.329.472-1.685 1.42-.33.867-.495 1.828-.495 2.882 0 2.461.87 3.693 2.614 3.693.831 0 1.689-.292 2.568-.871v.732a7.146 7.146 0 01-4.376 1.45c-1.291 0-2.31-.423-3.064-1.27-.682-.767-1.022-1.86-1.022-3.275 0-1.992.601-3.452 1.802-4.382.95-.739 2.183-1.107 3.694-1.107.954 0 1.87.173 2.75.517l-.618 2.793zm5.645 6.165l-3.326.59c.052-.725.097-1.926.139-3.605a146.932 146.932 0 00.01-8.187c-.036-1.351-.072-2.114-.11-2.287-.049-.24-.204-.399-.46-.479-.255-.08-.753-.122-1.494-.122v-.579l5.347-1.006c-.122 2.275-.184 4.111-.184 5.506l.013 2.554v.579c.582-.683 1.126-1.2 1.631-1.544.886-.596 1.802-.895 2.749-.895.689 0 1.194.198 1.515.59.32.391.478 1.013.478 1.86l-.039 2.442c0 1.388.062 2.342.182 2.856.045.225.123.378.236.468.116.086.284.132.514.132.343 0 .803-.091 1.379-.275v.712c-2.281.833-3.799 1.249-4.558 1.249-.367 0-.631-.093-.79-.281-.162-.184-.243-.493-.243-.92 0-.291.018-.898.058-1.821a66.44 66.44 0 00.078-2.512c0-.746-.046-1.291-.133-1.638-.145-.562-.482-.843-1.009-.843-.637 0-1.197.354-1.672 1.066-.195.284-.314.555-.349.805-.04.249-.059.857-.059 1.817 0 1.336.032 2.592.097 3.768zm17.579-1.755l-.075.7a9.257 9.257 0 01-2.348 1.194c-.828.281-1.625.42-2.388.42a4.43 4.43 0 01-1.734-.337 3.419 3.419 0 01-1.316-.933c-.663-.773-.993-1.86-.993-3.264 0-1.166.232-2.183.698-3.05.871-1.635 2.51-2.45 4.921-2.45.983 0 1.724.163 2.223.489.517.33.776.892.776 1.686 0 .763-.204 1.416-.612 1.954-.404.537-1.003.936-1.792 1.194-.757.242-1.718.406-2.886.488-.032.188-.048.32-.048.396 0 .315.074.649.223.992.149.347.343.642.582.896.415.419.935.628 1.57.628.866 0 1.934-.333 3.199-1.003zm-5.554-2.682c.164.014.29.022.378.022.643 0 1.178-.229 1.601-.691.491-.527.738-1.235.738-2.13 0-.458-.085-.826-.252-1.1-.166-.275-.389-.41-.667-.41-.544 0-.971.378-1.288 1.132-.313.753-.485 1.814-.51 3.178v-.001zm-212.998 20.328h-.588c-.013-.822-.039-1.422-.084-1.805-.457-.822-1.022-1.234-1.706-1.234-.465 0-.866.177-1.2.527a1.78 1.78 0 00-.501 1.263c0 .684.327 1.342.983 1.981.172.163.832.673 1.987 1.534.932.697 1.607 1.29 2.032 1.78.559.642.84 1.447.84 2.408 0 1.078-.358 1.981-1.08 2.713-.492.503-1.142.895-1.95 1.183a7.548 7.548 0 01-2.556.433c-1.621 0-2.986-.454-4.089-1.359l1.381-2.075c.722 1.79 1.689 2.685 2.905 2.685.624 0 1.142-.233 1.553-.701.411-.461.615-1.048.615-1.759 0-.468-.085-.87-.256-1.211-.168-.336-.456-.683-.861-1.034a83.544 83.544 0 00-1.86-1.394c-.977-.726-1.675-1.402-2.096-2.034a3.6 3.6 0 01-.634-2.06c0-.826.236-1.534.709-2.117.424-.527 1.07-.927 1.941-1.197a7.258 7.258 0 012.16-.316c1.116 0 2.135.202 3.057.6-.158.646-.391 1.708-.702 3.189zm7.095 16.546l-3.507.763c.165-3.635.249-6.893.249-9.763 0-2.338-.029-3.757-.084-4.253-.058-.5-.227-.788-.505-.867-.232-.063-.75-.098-1.546-.105v-.596l5.393-1.038-.074 1.218c1.148-.812 2.27-1.218 3.37-1.218.453 0 .893.09 1.32.27.427.177.77.417 1.035.716.557.631.835 1.602.835 2.917 0 1.933-.489 3.453-1.469 4.566a4.57 4.57 0 01-1.533 1.128 4.532 4.532 0 01-1.941.437c-.573 0-1.139-.1-1.695-.302 0 2.12.051 4.164.152 6.127zm1.579-14.548c-.321 0-.634.108-.945.327-.311.215-.524.475-.637.773-.062.174-.107.535-.13 1.083a64.36 64.36 0 00-.039 2.699c0 1.187.062 1.922.188 2.207.126.256.326.472.599.645.271.174.556.261.851.261.29 0 .556-.101.801-.298.243-.202.431-.473.554-.813.307-.797.462-1.87.462-3.212 0-1.08-.1-1.912-.3-2.502a1.822 1.822 0 00-.557-.84 1.41 1.41 0 00-.847-.33zm15.127 6.409l-.075.7a9.246 9.246 0 01-2.349 1.194c-.828.281-1.624.42-2.387.42a4.444 4.444 0 01-1.734-.336 3.421 3.421 0 01-1.316-.934c-.664-.773-.994-1.86-.994-3.264 0-1.166.233-2.183.699-3.05.87-1.634 2.51-2.45 4.92-2.45.984 0 1.724.163 2.223.489.518.33.776.892.776 1.686 0 .764-.204 1.416-.611 1.954-.405.537-1.003.936-1.792 1.194-.757.242-1.718.406-2.886.488-.032.188-.049.32-.049.396 0 .316.075.649.223.992.149.347.344.642.583.896.415.419.935.628 1.569.628.867 0 1.935-.333 3.2-1.003zm-5.555-2.682c.165.014.291.022.379.022.643 0 1.177-.229 1.601-.691.491-.527.738-1.235.738-2.13 0-.457-.085-.826-.253-1.1-.165-.274-.389-.409-.667-.409-.543 0-.97.378-1.287 1.131-.313.753-.485 1.814-.511 3.178v-.001zm7.66-1.874h-.637l.78-2.973c1.261.121 2.691.184 4.283.184 1.53 0 2.811-.025 3.846-.073a81.331 81.331 0 00-2.578 4.212 77.854 77.854 0 00-2.359 4.393c1.479-.029 3.184-.438 5.118-1.232l-.559 2.148c-1.783-.094-3.957-.143-6.528-.143-.797 0-1.696.028-2.692.08l.339-.528c1.967-2.959 3.611-5.686 4.937-8.18-1.685 0-2.869.374-3.552 1.12-.084.184-.216.513-.398.992zm16.104 4.921v.7c-2.268.833-3.746 1.249-4.442 1.249-.365 0-.631-.09-.789-.27-.162-.181-.243-.472-.243-.879 0-.436.023-1.196.065-2.279.024-.589.033-1.221.033-1.894 0-1.683-.108-2.627-.321-2.838-.165-.157-.769-.236-1.815-.243v-.601l5.455-1.037c-.143 1.982-.214 3.622-.214 4.927 0 1.53.051 2.488.152 2.862.101.379.349.566.754.566.32 0 .773-.087 1.365-.263zm-3.636-13.227c.392 0 .728.153 1.006.458.278.306.417.666.417 1.089a1.6 1.6 0 01-.417 1.118 1.335 1.335 0 01-1.025.458 1.37 1.37 0 01-1.039-.461 1.578 1.578 0 01-.43-1.115c0-.43.142-.794.43-1.096a1.404 1.404 0 011.058-.451zm6.36 8.209l-1.831-.316c.272-.933.731-1.588 1.374-1.97.897-.521 2.136-.781 3.714-.781 1.705 0 2.779.306 3.219.916.198.271.295.767.295 1.485l-.019 2.46c0 1.031.008 1.7.024 2.012.015.313.058.604.129.875.094.399.343.6.741.6a3.56 3.56 0 001.339-.275v.664c-1.307.517-2.258.864-2.856 1.037-.596.174-1.129.26-1.605.26-.689 0-1.032-.368-1.032-1.103 0-.09.003-.205.008-.347-.741.517-1.423.888-2.048 1.114a5.88 5.88 0 01-2.009.336c-.757 0-1.297-.163-1.621-.492-.32-.33-.482-.878-.482-1.645 0-1.374.431-2.349 1.288-2.921.86-.576 2.513-.992 4.955-1.26-.005-.798-.074-1.381-.206-1.745a1.575 1.575 0 00-.618-.781 1.711 1.711 0 00-.983-.295c-.677 0-1.156.278-1.434.833-.139.277-.252.725-.34 1.339h-.002zm3.568 1.471a5.264 5.264 0 00-.521-.041c-.789 0-1.394.201-1.808.6-.414.403-.621.985-.621 1.745 0 .479.074.861.226 1.155.211.413.54.622.99.622.314 0 .621-.098.919-.295.297-.198.524-.451.683-.757.126-.257.19-.787.19-1.592a21.59 21.59 0 00-.058-1.437zm12.209 3.547v.7c-2.281.833-3.785 1.249-4.51 1.249-.721 0-1.081-.399-1.081-1.201 0-.235.021-.756.059-1.553.065-1.344.097-3.012.097-5.007 0-1.361-.015-2.693-.052-3.997-.035-1.302-.074-2.068-.12-2.297-.041-.239-.19-.399-.446-.479-.252-.08-.744-.121-1.479-.121v-.579l5.448-1.007c-.151 2.901-.226 6.155-.226 9.763 0 1.853.042 3.102.123 3.754.058.413.139.691.252.83.11.139.304.208.583.208.365 0 .815-.087 1.352-.263zm6.852 0v.7c-2.268.833-3.747 1.249-4.442 1.249-.366 0-.631-.09-.789-.27-.162-.181-.243-.472-.243-.879 0-.436.023-1.196.065-2.279a48.94 48.94 0 00.032-1.894c0-1.683-.107-2.627-.32-2.838-.165-.157-.77-.236-1.815-.243v-.601l5.454-1.037c-.142 1.982-.213 3.622-.213 4.927 0 1.53.051 2.488.152 2.862.1.379.349.566.753.566.321 0 .773-.087 1.366-.263zm-3.637-13.227c.392 0 .728.153 1.006.458.279.306.418.666.418 1.089 0 .441-.139.812-.418 1.118-.278.305-.62.458-1.024.458a1.37 1.37 0 01-1.039-.461 1.578 1.578 0 01-.43-1.115c0-.43.142-.794.43-1.096.288-.302.64-.451 1.057-.451zm7.965 5.971l2.255.184v.611h-2.284c-.042.78-.065 1.471-.065 2.075 0 1.977.036 3.237.103 3.778.046.382.146.649.302.805.155.156.398.232.728.232.407 0 .877-.131 1.41-.399v.763c-1.63.771-3.018 1.156-4.164 1.156-.582 0-1.002-.135-1.264-.406-.262-.27-.395-.704-.395-1.301 0-.246.016-.631.048-1.162a49.84 49.84 0 00.098-1.93c.01-.44.015-1.644.015-3.611h-1.831v-.631l1.831-.101c.011-.257.013-.455.013-.59 0-.149-.01-.704-.032-1.665l-.01-.511a57.62 57.62 0 001.724-.801c.86-.406 1.469-.701 1.828-.885a70.135 70.135 0 00-.311 4.389h.001zm5.817 2.238l-1.831-.316c.272-.933.731-1.588 1.375-1.97.896-.521 2.135-.781 3.713-.781 1.706 0 2.78.306 3.22.916.197.271.294.767.294 1.485l-.018 2.46c0 1.031.008 1.7.023 2.012.016.313.058.604.129.875.094.399.343.6.741.6.437 0 .884-.091 1.339-.275v.664c-1.306.517-2.258.864-2.856 1.037-.596.174-1.129.26-1.604.26-.69 0-1.033-.368-1.033-1.103 0-.09.003-.205.008-.347-.741.517-1.423.888-2.047 1.114a5.89 5.89 0 01-2.01.336c-.757 0-1.297-.163-1.621-.492-.32-.33-.482-.878-.482-1.645 0-1.374.431-2.349 1.288-2.921.86-.576 2.513-.992 4.956-1.26-.006-.798-.074-1.381-.207-1.745a1.575 1.575 0 00-.618-.781 1.711 1.711 0 00-.983-.295c-.676 0-1.156.278-1.434.833-.139.277-.252.725-.339 1.339h-.003zm3.569 1.471a5.286 5.286 0 00-.521-.041c-.79 0-1.395.201-1.809.6-.414.403-.621.985-.621 1.745 0 .479.075.861.227 1.155.21.413.539.622.989.622.314 0 .622-.098.92-.295.297-.198.523-.451.682-.757.126-.257.191-.787.191-1.592 0-.209-.008-.504-.024-.878-.015-.371-.028-.559-.035-.559h.001zm9.778-3.709l2.256.184v.611h-2.284a38.28 38.28 0 00-.066 2.075c0 1.977.036 3.237.104 3.778.045.382.146.649.301.805.155.156.398.232.728.232.407 0 .877-.131 1.41-.399v.763c-1.63.771-3.018 1.156-4.163 1.156-.583 0-1.003-.135-1.265-.406-.262-.27-.395-.704-.395-1.301 0-.246.016-.631.049-1.162a49.41 49.41 0 00.097-1.93c.011-.44.016-1.644.016-3.611h-1.831v-.631l1.831-.101a15.5 15.5 0 00.013-.59c0-.149-.01-.704-.032-1.665l-.011-.511a57.62 57.62 0 001.724-.801 71.814 71.814 0 001.829-.885 69.383 69.383 0 00-.311 4.389zm11.747 6.891l-.074.7a9.263 9.263 0 01-2.349 1.194c-.828.281-1.624.42-2.387.42a4.444 4.444 0 01-1.734-.336 3.432 3.432 0 01-1.317-.934c-.663-.773-.993-1.86-.993-3.264 0-1.166.233-2.183.699-3.05.87-1.634 2.51-2.45 4.92-2.45.984 0 1.724.163 2.223.489.517.33.776.892.776 1.686 0 .764-.204 1.416-.612 1.954-.404.537-1.003.936-1.791 1.194-.757.242-1.718.406-2.886.488-.033.188-.049.32-.049.396 0 .316.075.649.223.992.149.347.344.642.583.896.414.419.934.628 1.569.628.867 0 1.935-.333 3.199-1.003zm-5.554-2.682c.164.014.291.022.379.022.643 0 1.177-.229 1.6-.691.492-.527.739-1.235.739-2.13 0-.457-.085-.826-.253-1.1-.165-.274-.389-.409-.667-.409-.544 0-.97.378-1.287 1.131-.314.753-.485 1.814-.511 3.178v-.001zM306.401 189.032l-3.325.589c.132-2.484.2-4.458.2-5.923 0-.926-.035-1.543-.11-1.845-.071-.305-.23-.493-.469-.559-.227-.063-.741-.097-1.537-.104v-.596l5.383-1.038-.02.396-.055.853-.049.864-.018.337c.721-.854 1.423-1.475 2.106-1.867a4.412 4.412 0 012.219-.583c.677 0 1.178.173 1.498.524.324.351.485.888.485 1.621 0 .155-.01.603-.028 1.342-.008.285-.011.784-.011 1.496 0 .995.008 1.637.024 1.925.015.288.055.562.119.818.052.226.133.379.247.469.113.087.284.132.51.132.321 0 .78-.084 1.372-.254v.712c-2.374.833-3.888 1.249-4.539 1.249-.701 0-1.051-.385-1.051-1.159 0-.17.029-.93.091-2.286.028-.712.045-1.461.045-2.255 0-.705-.045-1.215-.132-1.534a1.171 1.171 0 00-.356-.583.84.84 0 00-.564-.219c-.29 0-.592.101-.905.299-.311.201-.57.461-.773.788a2.693 2.693 0 00-.379.867c-.062.288-.094.711-.094 1.273 0 1.447.039 2.866.117 4.251h-.001z"/></g></svg>