<?xml version="1.0" encoding="utf-8"?><svg viewBox="0 0 512 512" xmlns="http://www.w3.org/2000/svg" xmlns:xlink="http://www.w3.org/1999/xlink"><style>:root>svg{display:none}:root>svg:target{display:block}</style><svg viewBox="0 0 512 512" id="chatting" xmlns="http://www.w3.org/2000/svg"><path d="M0 349.022c0 12.187 13.808 19.277 23.711 12.211l82.471-58.832a40.351 40.351 0 0123.563-7.542h181.382c31.928 0 57.902-25.975 57.902-57.902V46.626c0-8.284-6.716-15-15-15H57.902C25.975 31.626 0 57.6 0 89.528zM30 89.528c0-15.386 12.517-27.902 27.902-27.902h281.126v175.331c0 15.386-12.517 27.902-27.902 27.902H129.744c-14.78 0-28.952 4.537-40.984 13.12L30 319.896z"/><path d="M512 205.876c0-31.932-25.974-57.91-57.9-57.91h-40.07c-8.284 0-15 6.716-15 15s6.716 15 15 15h40.07c15.385 0 27.9 12.521 27.9 27.91V436.24l-58.759-41.915c-12.031-8.583-26.202-13.119-40.981-13.119H200.87c-15.385 0-27.9-12.521-27.9-27.91v-13.439c0-8.284-6.716-15-15-15s-15 6.716-15 15v13.439c0 31.932 25.974 57.91 57.9 57.91h181.39a40.341 40.341 0 0123.56 7.541l82.47 58.83c9.853 7.031 23.711.015 23.711-12.211v-259.49zM107.862 143.339h173.304c8.284 0 15-6.716 15-15s-6.716-15-15-15H107.862c-8.284 0-15 6.716-15 15s6.716 15 15 15zM107.862 213.339h173.304c8.284 0 15-6.716 15-15s-6.716-15-15-15H107.862c-8.284 0-15 6.716-15 15s6.716 15 15 15z"/></svg><svg viewBox="0 0 512 512" id="email" xmlns="http://www.w3.org/2000/svg"><path d="M467 61H45C20.218 61 0 81.196 0 106v300c0 24.72 20.128 45 45 45h422c24.72 0 45-20.128 45-45V106c0-24.72-20.128-45-45-45zm-6.214 30L256.954 294.833 51.359 91h409.427zM30 399.788V112.069l144.479 143.24L30 399.788zM51.213 421l144.57-144.57 50.657 50.222c5.864 5.814 15.327 5.795 21.167-.046L317 277.213 460.787 421H51.213zM482 399.787L338.213 256 482 112.212v287.575z"/></svg><svg viewBox="0 0 47.99 48" fill="#fff" id="search" xmlns="http://www.w3.org/2000/svg"><g data-name="Livello 2"><path d="M47.57 45.55L35.91 33.89a20.48 20.48 0 10-2 2l11.64 11.68a1.45 1.45 0 001 .43 1.4 1.4 0 001-.43 1.44 1.44 0 00.02-2.02zM2.86 20.47a17.59 17.59 0 1117.59 17.6 17.61 17.61 0 01-17.59-17.6z" data-name="Livello 1"/></g></svg></svg>